{
	"patcher" : 	{
		"fileversion" : 1,
		"rect" : [ 21.0, 44.0, 763.0, 726.0 ],
		"bglocked" : 0,
		"defrect" : [ 21.0, 44.0, 763.0, 726.0 ],
		"openrect" : [ 0.0, 0.0, 0.0, 0.0 ],
		"openinpresentation" : 0,
		"default_fontsize" : 12.0,
		"default_fontface" : 0,
		"default_fontname" : "Arial",
		"gridonopen" : 0,
		"gridsize" : [ 10.0, 10.0 ],
		"gridsnaponopen" : 0,
		"toolbarvisible" : 1,
		"boxanimatetime" : 200,
		"imprint" : 0,
		"enablehscroll" : 1,
		"enablevscroll" : 1,
		"devicewidth" : 0.0,
		"boxes" : [ 			{
				"box" : 				{
					"maxclass" : "preset",
					"patching_rect" : [ 470.0, 60.0, 123.0, 27.0 ],
					"numinlets" : 1,
					"id" : "obj-216",
					"numoutlets" : 4,
					"outlettype" : [ "preset", "int", "preset", "int" ],
					"preset_data" : [ 						{
							"number" : 1,
							"data" : [ 5, "obj-440", "toggle", "int", 0, 5, "obj-424", "number", "int", 0, 5, "obj-423", "number", "int", 0, 5, "obj-422", "number", "int", 1, 5, "obj-66", "toggle", "int", 0, 5, "obj-64", "number", "int", 0, 5, "obj-63", "number", "int", 0, 5, "obj-62", "number", "int", 1, 5, "obj-84", "toggle", "int", 0, 5, "obj-82", "number", "int", 0, 5, "obj-81", "number", "int", 0, 5, "obj-80", "number", "int", 1, 5, "obj-102", "toggle", "int", 0, 5, "obj-100", "number", "int", 0, 5, "obj-99", "number", "int", 0, 5, "obj-98", "number", "int", 1, 5, "obj-120", "toggle", "int", 0, 5, "obj-118", "number", "int", 0, 5, "obj-117", "number", "int", 0, 5, "obj-116", "number", "int", 1, 5, "obj-138", "toggle", "int", 0, 5, "obj-136", "number", "int", 0, 5, "obj-135", "number", "int", 0, 5, "obj-134", "number", "int", 1, 5, "obj-156", "toggle", "int", 0, 5, "obj-154", "number", "int", 0, 5, "obj-153", "number", "int", 0, 5, "obj-152", "number", "int", 1, 5, "obj-174", "toggle", "int", 0, 5, "obj-172", "number", "int", 0, 5, "obj-171", "number", "int", 0, 5, "obj-170", "number", "int", 1, 5, "obj-192", "toggle", "int", 0, 5, "obj-190", "number", "int", 0, 5, "obj-189", "number", "int", 0, 5, "obj-188", "number", "int", 1, 5, "obj-210", "toggle", "int", 0, 5, "obj-208", "number", "int", 0, 5, "obj-207", "number", "int", 0, 5, "obj-206", "number", "int", 1, 5, "obj-320", "number", "int", 1, 5, "obj-315", "number", "int", 1, 5, "obj-311", "umenu", "int", 1 ]
						}
, 						{
							"number" : 2,
							"data" : [ 5, "obj-440", "toggle", "int", 0, 5, "obj-424", "number", "int", 0, 5, "obj-423", "number", "int", 82, 5, "obj-422", "number", "int", 1, 5, "obj-66", "toggle", "int", 0, 5, "obj-64", "number", "int", 0, 5, "obj-63", "number", "int", 83, 5, "obj-62", "number", "int", 1, 5, "obj-84", "toggle", "int", 0, 5, "obj-82", "number", "int", 0, 5, "obj-81", "number", "int", 84, 5, "obj-80", "number", "int", 1, 5, "obj-102", "toggle", "int", 0, 5, "obj-100", "number", "int", 0, 5, "obj-99", "number", "int", 85, 5, "obj-98", "number", "int", 1, 5, "obj-120", "toggle", "int", 0, 5, "obj-118", "number", "int", 0, 5, "obj-117", "number", "int", 86, 5, "obj-116", "number", "int", 1, 5, "obj-138", "toggle", "int", 0, 5, "obj-136", "number", "int", 0, 5, "obj-135", "number", "int", 87, 5, "obj-134", "number", "int", 1, 5, "obj-156", "toggle", "int", 0, 5, "obj-154", "number", "int", 0, 5, "obj-153", "number", "int", 88, 5, "obj-152", "number", "int", 1, 5, "obj-174", "toggle", "int", 0, 5, "obj-172", "number", "int", 0, 5, "obj-171", "number", "int", 89, 5, "obj-170", "number", "int", 1, 5, "obj-192", "toggle", "int", 0, 5, "obj-190", "number", "int", 0, 5, "obj-189", "number", "int", 90, 5, "obj-188", "number", "int", 1, 5, "obj-210", "toggle", "int", 0, 5, "obj-208", "number", "int", 0, 5, "obj-207", "number", "int", 91, 5, "obj-206", "number", "int", 1, 5, "obj-320", "number", "int", 2, 5, "obj-315", "number", "int", 1, 5, "obj-311", "umenu", "int", 1 ]
						}
, 						{
							"number" : 3,
							"data" : [ 5, "obj-440", "toggle", "int", 0, 5, "obj-424", "number", "int", 0, 5, "obj-423", "number", "int", 21, 5, "obj-422", "number", "int", 1, 5, "obj-66", "toggle", "int", 0, 5, "obj-64", "number", "int", 0, 5, "obj-63", "number", "int", 22, 5, "obj-62", "number", "int", 1, 5, "obj-84", "toggle", "int", 0, 5, "obj-82", "number", "int", 0, 5, "obj-81", "number", "int", 23, 5, "obj-80", "number", "int", 1, 5, "obj-102", "toggle", "int", 0, 5, "obj-100", "number", "int", 0, 5, "obj-99", "number", "int", 24, 5, "obj-98", "number", "int", 1, 5, "obj-120", "toggle", "int", 0, 5, "obj-118", "number", "int", 0, 5, "obj-117", "number", "int", 25, 5, "obj-116", "number", "int", 1, 5, "obj-138", "toggle", "int", 0, 5, "obj-136", "number", "int", 0, 5, "obj-135", "number", "int", 26, 5, "obj-134", "number", "int", 1, 5, "obj-156", "toggle", "int", 0, 5, "obj-154", "number", "int", 0, 5, "obj-153", "number", "int", 27, 5, "obj-152", "number", "int", 1, 5, "obj-174", "toggle", "int", 0, 5, "obj-172", "number", "int", 0, 5, "obj-171", "number", "int", 28, 5, "obj-170", "number", "int", 1, 5, "obj-192", "toggle", "int", 0, 5, "obj-190", "number", "int", 0, 5, "obj-189", "number", "int", 29, 5, "obj-188", "number", "int", 1, 5, "obj-210", "toggle", "int", 0, 5, "obj-208", "number", "int", 0, 5, "obj-207", "number", "int", 30, 5, "obj-206", "number", "int", 1, 5, "obj-320", "number", "int", 3, 5, "obj-315", "number", "int", 3, 5, "obj-311", "umenu", "int", 1 ]
						}
 ]
				}

			}
, 			{
				"box" : 				{
					"maxclass" : "comment",
					"text" : "MIDI out",
					"patching_rect" : [ 600.0, 50.0, 64.0, 20.0 ],
					"numinlets" : 1,
					"id" : "obj-309",
					"fontname" : "Arial",
					"numoutlets" : 0,
					"fontsize" : 12.0
				}

			}
, 			{
				"box" : 				{
					"maxclass" : "newobj",
					"text" : "midiinfo",
					"hidden" : 1,
					"patching_rect" : [ 680.0, 40.0, 50.0, 20.0 ],
					"numinlets" : 2,
					"id" : "obj-310",
					"fontname" : "Arial",
					"numoutlets" : 1,
					"outlettype" : [ "" ],
					"fontsize" : 11.595187
				}

			}
, 			{
				"box" : 				{
					"maxclass" : "umenu",
					"items" : [ "IAC Driver Bus 1", ",", "from MaxMSP 1", ",", "from MaxMSP 2", ",", "to MaxMSP 1", ",", "to MaxMSP 2" ],
					"patching_rect" : [ 600.0, 70.0, 115.0, 20.0 ],
					"numinlets" : 1,
					"id" : "obj-311",
					"fontname" : "Arial",
					"numoutlets" : 3,
					"types" : [  ],
					"outlettype" : [ "int", "", "" ],
					"fontsize" : 11.595187
				}

			}
, 			{
				"box" : 				{
					"maxclass" : "comment",
					"text" : "BUTTON",
					"patching_rect" : [ 180.0, 30.0, 175.0, 48.0 ],
					"numinlets" : 1,
					"id" : "obj-1091",
					"fontname" : "Lucida Grande",
					"numoutlets" : 0,
					"fontface" : 1,
					"fontsize" : 35.0
				}

			}
, 			{
				"box" : 				{
					"maxclass" : "newobj",
					"text" : "p presetOpt",
					"hidden" : 1,
					"patching_rect" : [ 470.0, 80.0, 105.0, 20.0 ],
					"numinlets" : 5,
					"id" : "obj-312",
					"fontname" : "Arial",
					"numoutlets" : 1,
					"outlettype" : [ "" ],
					"fontsize" : 12.0,
					"patcher" : 					{
						"fileversion" : 1,
						"rect" : [ 352.0, 495.0, 384.0, 219.0 ],
						"bglocked" : 0,
						"defrect" : [ 352.0, 495.0, 384.0, 219.0 ],
						"openrect" : [ 0.0, 0.0, 0.0, 0.0 ],
						"openinpresentation" : 0,
						"default_fontsize" : 12.0,
						"default_fontface" : 0,
						"default_fontname" : "Arial",
						"gridonopen" : 0,
						"gridsize" : [ 10.0, 10.0 ],
						"gridsnaponopen" : 0,
						"toolbarvisible" : 1,
						"boxanimatetime" : 200,
						"imprint" : 0,
						"enablehscroll" : 1,
						"enablevscroll" : 1,
						"devicewidth" : 0.0,
						"boxes" : [ 							{
								"box" : 								{
									"maxclass" : "outlet",
									"patching_rect" : [ 50.0, 160.0, 25.0, 25.0 ],
									"numinlets" : 1,
									"id" : "obj-6",
									"numoutlets" : 0,
									"comment" : ""
								}

							}
, 							{
								"box" : 								{
									"maxclass" : "inlet",
									"patching_rect" : [ 300.0, 30.0, 25.0, 25.0 ],
									"numinlets" : 0,
									"id" : "obj-5",
									"numoutlets" : 1,
									"outlettype" : [ "bang" ],
									"comment" : ""
								}

							}
, 							{
								"box" : 								{
									"maxclass" : "inlet",
									"patching_rect" : [ 210.0, 30.0, 25.0, 25.0 ],
									"numinlets" : 0,
									"id" : "obj-4",
									"numoutlets" : 1,
									"outlettype" : [ "int" ],
									"comment" : ""
								}

							}
, 							{
								"box" : 								{
									"maxclass" : "inlet",
									"patching_rect" : [ 170.0, 30.0, 25.0, 25.0 ],
									"numinlets" : 0,
									"id" : "obj-3",
									"numoutlets" : 1,
									"outlettype" : [ "bang" ],
									"comment" : ""
								}

							}
, 							{
								"box" : 								{
									"maxclass" : "inlet",
									"patching_rect" : [ 90.0, 30.0, 25.0, 25.0 ],
									"numinlets" : 0,
									"id" : "obj-2",
									"numoutlets" : 1,
									"outlettype" : [ "int" ],
									"comment" : ""
								}

							}
, 							{
								"box" : 								{
									"maxclass" : "inlet",
									"patching_rect" : [ 50.0, 30.0, 25.0, 25.0 ],
									"numinlets" : 0,
									"id" : "obj-1",
									"numoutlets" : 1,
									"outlettype" : [ "bang" ],
									"comment" : ""
								}

							}
, 							{
								"box" : 								{
									"maxclass" : "message",
									"text" : "clear 1",
									"patching_rect" : [ 170.0, 110.0, 59.0, 18.0 ],
									"numinlets" : 2,
									"id" : "obj-113",
									"fontname" : "Arial",
									"numoutlets" : 1,
									"outlettype" : [ "" ],
									"fontsize" : 12.0
								}

							}
, 							{
								"box" : 								{
									"maxclass" : "newobj",
									"text" : "prepend clear",
									"patching_rect" : [ 210.0, 80.0, 84.0, 20.0 ],
									"numinlets" : 1,
									"id" : "obj-111",
									"fontname" : "Arial",
									"numoutlets" : 1,
									"outlettype" : [ "" ],
									"fontsize" : 12.0
								}

							}
, 							{
								"box" : 								{
									"maxclass" : "message",
									"text" : "clearall",
									"patching_rect" : [ 300.0, 110.0, 49.0, 18.0 ],
									"numinlets" : 2,
									"id" : "obj-84",
									"fontname" : "Arial",
									"numoutlets" : 1,
									"outlettype" : [ "" ],
									"fontsize" : 12.0
								}

							}
, 							{
								"box" : 								{
									"maxclass" : "message",
									"text" : "store 1",
									"patching_rect" : [ 50.0, 110.0, 59.0, 18.0 ],
									"numinlets" : 2,
									"id" : "obj-78",
									"fontname" : "Arial",
									"numoutlets" : 1,
									"outlettype" : [ "" ],
									"fontsize" : 12.0
								}

							}
, 							{
								"box" : 								{
									"maxclass" : "newobj",
									"text" : "prepend store",
									"patching_rect" : [ 90.0, 80.0, 85.0, 20.0 ],
									"numinlets" : 1,
									"id" : "obj-74",
									"fontname" : "Arial",
									"numoutlets" : 1,
									"outlettype" : [ "" ],
									"fontsize" : 12.0
								}

							}
 ],
						"lines" : [ 							{
								"patchline" : 								{
									"source" : [ "obj-84", 0 ],
									"destination" : [ "obj-6", 0 ],
									"hidden" : 0,
									"midpoints" : [ 309.5, 147.0, 59.5, 147.0 ]
								}

							}
, 							{
								"patchline" : 								{
									"source" : [ "obj-113", 0 ],
									"destination" : [ "obj-6", 0 ],
									"hidden" : 0,
									"midpoints" : [ 179.5, 147.0, 59.5, 147.0 ]
								}

							}
, 							{
								"patchline" : 								{
									"source" : [ "obj-78", 0 ],
									"destination" : [ "obj-6", 0 ],
									"hidden" : 0,
									"midpoints" : [  ]
								}

							}
, 							{
								"patchline" : 								{
									"source" : [ "obj-5", 0 ],
									"destination" : [ "obj-84", 0 ],
									"hidden" : 0,
									"midpoints" : [  ]
								}

							}
, 							{
								"patchline" : 								{
									"source" : [ "obj-4", 0 ],
									"destination" : [ "obj-111", 0 ],
									"hidden" : 0,
									"midpoints" : [  ]
								}

							}
, 							{
								"patchline" : 								{
									"source" : [ "obj-3", 0 ],
									"destination" : [ "obj-113", 0 ],
									"hidden" : 0,
									"midpoints" : [  ]
								}

							}
, 							{
								"patchline" : 								{
									"source" : [ "obj-2", 0 ],
									"destination" : [ "obj-74", 0 ],
									"hidden" : 0,
									"midpoints" : [  ]
								}

							}
, 							{
								"patchline" : 								{
									"source" : [ "obj-1", 0 ],
									"destination" : [ "obj-78", 0 ],
									"hidden" : 0,
									"midpoints" : [  ]
								}

							}
, 							{
								"patchline" : 								{
									"source" : [ "obj-74", 0 ],
									"destination" : [ "obj-78", 1 ],
									"hidden" : 0,
									"midpoints" : [  ]
								}

							}
, 							{
								"patchline" : 								{
									"source" : [ "obj-111", 0 ],
									"destination" : [ "obj-113", 1 ],
									"hidden" : 0,
									"midpoints" : [  ]
								}

							}
 ]
					}
,
					"saved_object_attributes" : 					{
						"default_fontface" : 0,
						"default_fontname" : "Arial",
						"fontname" : "Arial",
						"default_fontsize" : 12.0,
						"globalpatchername" : "",
						"fontface" : 0,
						"fontsize" : 12.0
					}

				}

			}
, 			{
				"box" : 				{
					"maxclass" : "comment",
					"text" : "Delete",
					"patching_rect" : [ 540.0, 20.0, 46.0, 20.0 ],
					"numinlets" : 1,
					"id" : "obj-313",
					"fontname" : "Arial",
					"numoutlets" : 0,
					"fontsize" : 12.0
				}

			}
, 			{
				"box" : 				{
					"maxclass" : "comment",
					"text" : "DeleteAll",
					"patching_rect" : [ 620.0, 20.0, 60.0, 20.0 ],
					"numinlets" : 1,
					"id" : "obj-314",
					"fontname" : "Arial",
					"numoutlets" : 0,
					"fontsize" : 12.0
				}

			}
, 			{
				"box" : 				{
					"maxclass" : "number",
					"maximum" : 50,
					"patching_rect" : [ 470.0, 20.0, 50.0, 20.0 ],
					"numinlets" : 1,
					"id" : "obj-315",
					"fontname" : "Arial",
					"numoutlets" : 2,
					"minimum" : 1,
					"outlettype" : [ "int", "bang" ],
					"fontsize" : 12.0
				}

			}
, 			{
				"box" : 				{
					"maxclass" : "button",
					"patching_rect" : [ 600.0, 20.0, 20.0, 20.0 ],
					"numinlets" : 1,
					"id" : "obj-316",
					"bgcolor" : [ 0.811765, 0.372549, 0.372549, 1.0 ],
					"numoutlets" : 1,
					"outlettype" : [ "bang" ]
				}

			}
, 			{
				"box" : 				{
					"maxclass" : "button",
					"patching_rect" : [ 520.0, 40.0, 20.0, 20.0 ],
					"numinlets" : 1,
					"id" : "obj-317",
					"numoutlets" : 1,
					"outlettype" : [ "bang" ]
				}

			}
, 			{
				"box" : 				{
					"maxclass" : "button",
					"patching_rect" : [ 520.0, 20.0, 20.0, 20.0 ],
					"numinlets" : 1,
					"id" : "obj-318",
					"numoutlets" : 1,
					"outlettype" : [ "bang" ]
				}

			}
, 			{
				"box" : 				{
					"maxclass" : "comment",
					"text" : "Save",
					"patching_rect" : [ 540.0, 40.0, 45.0, 20.0 ],
					"numinlets" : 1,
					"id" : "obj-319",
					"fontname" : "Arial",
					"numoutlets" : 0,
					"fontsize" : 12.0
				}

			}
, 			{
				"box" : 				{
					"maxclass" : "number",
					"maximum" : 50,
					"patching_rect" : [ 470.0, 40.0, 50.0, 20.0 ],
					"numinlets" : 1,
					"id" : "obj-320",
					"fontname" : "Arial",
					"numoutlets" : 2,
					"minimum" : 1,
					"outlettype" : [ "int", "bang" ],
					"fontsize" : 12.0
				}

			}
, 			{
				"box" : 				{
					"maxclass" : "newobj",
					"text" : "t i b",
					"hidden" : 1,
					"patching_rect" : [ 422.0, 683.0, 32.5, 20.0 ],
					"numinlets" : 1,
					"id" : "obj-198",
					"fontname" : "Arial",
					"numoutlets" : 2,
					"outlettype" : [ "int", "bang" ],
					"fontsize" : 12.0
				}

			}
, 			{
				"box" : 				{
					"maxclass" : "comment",
					"text" : "Button 10",
					"patching_rect" : [ 62.0, 677.0, 109.0, 29.0 ],
					"numinlets" : 1,
					"id" : "obj-199",
					"fontname" : "Arial",
					"numoutlets" : 0,
					"fontface" : 1,
					"fontsize" : 20.0
				}

			}
, 			{
				"box" : 				{
					"maxclass" : "comment",
					"text" : "Assine Button",
					"patching_rect" : [ 182.0, 653.0, 84.0, 20.0 ],
					"numinlets" : 1,
					"id" : "obj-200",
					"fontname" : "Arial",
					"numoutlets" : 0,
					"fontsize" : 12.0
				}

			}
, 			{
				"box" : 				{
					"maxclass" : "comment",
					"text" : "      Tup (toggle)",
					"patching_rect" : [ 282.0, 681.0, 101.0, 20.0 ],
					"numinlets" : 1,
					"id" : "obj-201",
					"fontname" : "Arial",
					"numoutlets" : 0,
					"fontsize" : 12.0
				}

			}
, 			{
				"box" : 				{
					"maxclass" : "comment",
					"text" : " OSC value",
					"patching_rect" : [ 352.0, 653.0, 95.0, 20.0 ],
					"numinlets" : 1,
					"id" : "obj-202",
					"fontname" : "Arial",
					"numoutlets" : 0,
					"fontsize" : 12.0
				}

			}
, 			{
				"box" : 				{
					"maxclass" : "comment",
					"text" : "MIDI value     MIDI  number   MIDI channel",
					"patching_rect" : [ 472.0, 653.0, 256.0, 20.0 ],
					"numinlets" : 1,
					"id" : "obj-203",
					"fontname" : "Arial",
					"numoutlets" : 0,
					"fontsize" : 12.0
				}

			}
, 			{
				"box" : 				{
					"maxclass" : "newobj",
					"text" : "* 127",
					"hidden" : 1,
					"patching_rect" : [ 422.0, 663.0, 39.0, 20.0 ],
					"numinlets" : 2,
					"id" : "obj-204",
					"fontname" : "Arial",
					"numoutlets" : 1,
					"outlettype" : [ "int" ],
					"fontsize" : 12.0
				}

			}
, 			{
				"box" : 				{
					"maxclass" : "newobj",
					"text" : "ctlout",
					"hidden" : 1,
					"patching_rect" : [ 702.0, 681.0, 46.0, 20.0 ],
					"numinlets" : 3,
					"id" : "obj-205",
					"fontname" : "Arial",
					"numoutlets" : 0,
					"fontsize" : 12.0
				}

			}
, 			{
				"box" : 				{
					"maxclass" : "number",
					"maximum" : 16,
					"patching_rect" : [ 642.0, 681.0, 50.0, 20.0 ],
					"numinlets" : 1,
					"id" : "obj-206",
					"fontname" : "Arial",
					"numoutlets" : 2,
					"minimum" : 1,
					"outlettype" : [ "int", "bang" ],
					"fontsize" : 12.0
				}

			}
, 			{
				"box" : 				{
					"maxclass" : "number",
					"patching_rect" : [ 562.0, 681.0, 50.0, 20.0 ],
					"numinlets" : 1,
					"id" : "obj-207",
					"fontname" : "Arial",
					"numoutlets" : 2,
					"minimum" : 0,
					"outlettype" : [ "int", "bang" ],
					"fontsize" : 12.0
				}

			}
, 			{
				"box" : 				{
					"maxclass" : "number",
					"maximum" : 127,
					"patching_rect" : [ 482.0, 681.0, 47.0, 20.0 ],
					"numinlets" : 1,
					"id" : "obj-208",
					"fontname" : "Arial",
					"numoutlets" : 2,
					"minimum" : 0,
					"outlettype" : [ "int", "bang" ],
					"fontsize" : 12.0
				}

			}
, 			{
				"box" : 				{
					"maxclass" : "live.button",
					"varname" : "live.button[10]",
					"patching_rect" : [ 212.0, 681.0, 20.0, 20.0 ],
					"numinlets" : 1,
					"id" : "obj-209",
					"parameter_enable" : 1,
					"numoutlets" : 1,
					"outlettype" : [ "" ],
					"saved_attribute_attributes" : 					{
						"valueof" : 						{
							"parameter_type" : 2,
							"parameter_initial_enable" : 0,
							"parameter_shortname" : "live.button",
							"parameter_modmax" : 127.0,
							"parameter_longname" : "live.button[11]",
							"parameter_modmin" : 0.0,
							"parameter_linknames" : 0,
							"parameter_modmode" : 0,
							"parameter_info" : "",
							"parameter_units" : "",
							"parameter_order" : 0,
							"parameter_defer" : 0,
							"parameter_speedlim" : 1.0,
							"parameter_steps" : 0,
							"parameter_invisible" : 0,
							"parameter_enum" : [ "off", "on" ],
							"parameter_exponent" : 1.0,
							"parameter_annotation_name" : "",
							"parameter_unitstyle" : 10,
							"parameter_mmax" : 1.0,
							"parameter_mmin" : 0.0
						}

					}

				}

			}
, 			{
				"box" : 				{
					"maxclass" : "toggle",
					"patching_rect" : [ 382.0, 681.0, 20.0, 20.0 ],
					"numinlets" : 1,
					"id" : "obj-210",
					"numoutlets" : 1,
					"outlettype" : [ "int" ]
				}

			}
, 			{
				"box" : 				{
					"maxclass" : "newobj",
					"text" : "ALTOSC_button /9",
					"patching_rect" : [ 52.0, 653.0, 111.0, 20.0 ],
					"numinlets" : 1,
					"id" : "obj-211",
					"fontname" : "Arial",
					"numoutlets" : 1,
					"outlettype" : [ "" ],
					"fontsize" : 12.0
				}

			}
, 			{
				"box" : 				{
					"maxclass" : "newobj",
					"text" : "t i b",
					"hidden" : 1,
					"patching_rect" : [ 422.0, 623.0, 32.5, 20.0 ],
					"numinlets" : 1,
					"id" : "obj-180",
					"fontname" : "Arial",
					"numoutlets" : 2,
					"outlettype" : [ "int", "bang" ],
					"fontsize" : 12.0
				}

			}
, 			{
				"box" : 				{
					"maxclass" : "comment",
					"text" : "Button 9",
					"patching_rect" : [ 62.0, 617.0, 109.0, 29.0 ],
					"numinlets" : 1,
					"id" : "obj-181",
					"fontname" : "Arial",
					"numoutlets" : 0,
					"fontface" : 1,
					"fontsize" : 20.0
				}

			}
, 			{
				"box" : 				{
					"maxclass" : "comment",
					"text" : "Assine Button",
					"patching_rect" : [ 182.0, 593.0, 84.0, 20.0 ],
					"numinlets" : 1,
					"id" : "obj-182",
					"fontname" : "Arial",
					"numoutlets" : 0,
					"fontsize" : 12.0
				}

			}
, 			{
				"box" : 				{
					"maxclass" : "comment",
					"text" : "      Tup (toggle)",
					"patching_rect" : [ 282.0, 621.0, 101.0, 20.0 ],
					"numinlets" : 1,
					"id" : "obj-183",
					"fontname" : "Arial",
					"numoutlets" : 0,
					"fontsize" : 12.0
				}

			}
, 			{
				"box" : 				{
					"maxclass" : "comment",
					"text" : " OSC value",
					"patching_rect" : [ 352.0, 593.0, 95.0, 20.0 ],
					"numinlets" : 1,
					"id" : "obj-184",
					"fontname" : "Arial",
					"numoutlets" : 0,
					"fontsize" : 12.0
				}

			}
, 			{
				"box" : 				{
					"maxclass" : "comment",
					"text" : "MIDI value     MIDI  number   MIDI channel",
					"patching_rect" : [ 472.0, 593.0, 256.0, 20.0 ],
					"numinlets" : 1,
					"id" : "obj-185",
					"fontname" : "Arial",
					"numoutlets" : 0,
					"fontsize" : 12.0
				}

			}
, 			{
				"box" : 				{
					"maxclass" : "newobj",
					"text" : "* 127",
					"hidden" : 1,
					"patching_rect" : [ 422.0, 603.0, 39.0, 20.0 ],
					"numinlets" : 2,
					"id" : "obj-186",
					"fontname" : "Arial",
					"numoutlets" : 1,
					"outlettype" : [ "int" ],
					"fontsize" : 12.0
				}

			}
, 			{
				"box" : 				{
					"maxclass" : "newobj",
					"text" : "ctlout",
					"hidden" : 1,
					"patching_rect" : [ 702.0, 621.0, 46.0, 20.0 ],
					"numinlets" : 3,
					"id" : "obj-187",
					"fontname" : "Arial",
					"numoutlets" : 0,
					"fontsize" : 12.0
				}

			}
, 			{
				"box" : 				{
					"maxclass" : "number",
					"maximum" : 16,
					"patching_rect" : [ 642.0, 621.0, 50.0, 20.0 ],
					"numinlets" : 1,
					"id" : "obj-188",
					"fontname" : "Arial",
					"numoutlets" : 2,
					"minimum" : 1,
					"outlettype" : [ "int", "bang" ],
					"fontsize" : 12.0
				}

			}
, 			{
				"box" : 				{
					"maxclass" : "number",
					"patching_rect" : [ 562.0, 621.0, 50.0, 20.0 ],
					"numinlets" : 1,
					"id" : "obj-189",
					"fontname" : "Arial",
					"numoutlets" : 2,
					"minimum" : 0,
					"outlettype" : [ "int", "bang" ],
					"fontsize" : 12.0
				}

			}
, 			{
				"box" : 				{
					"maxclass" : "number",
					"maximum" : 127,
					"patching_rect" : [ 482.0, 621.0, 47.0, 20.0 ],
					"numinlets" : 1,
					"id" : "obj-190",
					"fontname" : "Arial",
					"numoutlets" : 2,
					"minimum" : 0,
					"outlettype" : [ "int", "bang" ],
					"fontsize" : 12.0
				}

			}
, 			{
				"box" : 				{
					"maxclass" : "live.button",
					"varname" : "live.button[9]",
					"patching_rect" : [ 212.0, 621.0, 20.0, 20.0 ],
					"numinlets" : 1,
					"id" : "obj-191",
					"parameter_enable" : 1,
					"numoutlets" : 1,
					"outlettype" : [ "" ],
					"saved_attribute_attributes" : 					{
						"valueof" : 						{
							"parameter_type" : 2,
							"parameter_initial_enable" : 0,
							"parameter_shortname" : "live.button",
							"parameter_modmax" : 127.0,
							"parameter_longname" : "live.button[10]",
							"parameter_modmin" : 0.0,
							"parameter_linknames" : 0,
							"parameter_modmode" : 0,
							"parameter_info" : "",
							"parameter_units" : "",
							"parameter_order" : 0,
							"parameter_defer" : 0,
							"parameter_speedlim" : 1.0,
							"parameter_steps" : 0,
							"parameter_invisible" : 0,
							"parameter_enum" : [ "off", "on" ],
							"parameter_exponent" : 1.0,
							"parameter_annotation_name" : "",
							"parameter_unitstyle" : 10,
							"parameter_mmax" : 1.0,
							"parameter_mmin" : 0.0
						}

					}

				}

			}
, 			{
				"box" : 				{
					"maxclass" : "toggle",
					"patching_rect" : [ 382.0, 621.0, 20.0, 20.0 ],
					"numinlets" : 1,
					"id" : "obj-192",
					"numoutlets" : 1,
					"outlettype" : [ "int" ]
				}

			}
, 			{
				"box" : 				{
					"maxclass" : "newobj",
					"text" : "ALTOSC_button /8",
					"patching_rect" : [ 52.0, 593.0, 111.0, 20.0 ],
					"numinlets" : 1,
					"id" : "obj-193",
					"fontname" : "Arial",
					"numoutlets" : 1,
					"outlettype" : [ "" ],
					"fontsize" : 12.0
				}

			}
, 			{
				"box" : 				{
					"maxclass" : "newobj",
					"text" : "t i b",
					"hidden" : 1,
					"patching_rect" : [ 422.0, 563.0, 32.5, 20.0 ],
					"numinlets" : 1,
					"id" : "obj-162",
					"fontname" : "Arial",
					"numoutlets" : 2,
					"outlettype" : [ "int", "bang" ],
					"fontsize" : 12.0
				}

			}
, 			{
				"box" : 				{
					"maxclass" : "comment",
					"text" : "Button 8",
					"patching_rect" : [ 62.0, 557.0, 109.0, 29.0 ],
					"numinlets" : 1,
					"id" : "obj-163",
					"fontname" : "Arial",
					"numoutlets" : 0,
					"fontface" : 1,
					"fontsize" : 20.0
				}

			}
, 			{
				"box" : 				{
					"maxclass" : "comment",
					"text" : "Assine Button",
					"patching_rect" : [ 182.0, 533.0, 84.0, 20.0 ],
					"numinlets" : 1,
					"id" : "obj-164",
					"fontname" : "Arial",
					"numoutlets" : 0,
					"fontsize" : 12.0
				}

			}
, 			{
				"box" : 				{
					"maxclass" : "comment",
					"text" : "      Tup (toggle)",
					"patching_rect" : [ 282.0, 561.0, 101.0, 20.0 ],
					"numinlets" : 1,
					"id" : "obj-165",
					"fontname" : "Arial",
					"numoutlets" : 0,
					"fontsize" : 12.0
				}

			}
, 			{
				"box" : 				{
					"maxclass" : "comment",
					"text" : " OSC value",
					"patching_rect" : [ 352.0, 533.0, 95.0, 20.0 ],
					"numinlets" : 1,
					"id" : "obj-166",
					"fontname" : "Arial",
					"numoutlets" : 0,
					"fontsize" : 12.0
				}

			}
, 			{
				"box" : 				{
					"maxclass" : "comment",
					"text" : "MIDI value     MIDI  number   MIDI channel",
					"patching_rect" : [ 472.0, 533.0, 256.0, 20.0 ],
					"numinlets" : 1,
					"id" : "obj-167",
					"fontname" : "Arial",
					"numoutlets" : 0,
					"fontsize" : 12.0
				}

			}
, 			{
				"box" : 				{
					"maxclass" : "newobj",
					"text" : "* 127",
					"hidden" : 1,
					"patching_rect" : [ 422.0, 543.0, 39.0, 20.0 ],
					"numinlets" : 2,
					"id" : "obj-168",
					"fontname" : "Arial",
					"numoutlets" : 1,
					"outlettype" : [ "int" ],
					"fontsize" : 12.0
				}

			}
, 			{
				"box" : 				{
					"maxclass" : "newobj",
					"text" : "ctlout",
					"hidden" : 1,
					"patching_rect" : [ 702.0, 561.0, 46.0, 20.0 ],
					"numinlets" : 3,
					"id" : "obj-169",
					"fontname" : "Arial",
					"numoutlets" : 0,
					"fontsize" : 12.0
				}

			}
, 			{
				"box" : 				{
					"maxclass" : "number",
					"maximum" : 16,
					"patching_rect" : [ 642.0, 561.0, 50.0, 20.0 ],
					"numinlets" : 1,
					"id" : "obj-170",
					"fontname" : "Arial",
					"numoutlets" : 2,
					"minimum" : 1,
					"outlettype" : [ "int", "bang" ],
					"fontsize" : 12.0
				}

			}
, 			{
				"box" : 				{
					"maxclass" : "number",
					"patching_rect" : [ 562.0, 561.0, 50.0, 20.0 ],
					"numinlets" : 1,
					"id" : "obj-171",
					"fontname" : "Arial",
					"numoutlets" : 2,
					"minimum" : 0,
					"outlettype" : [ "int", "bang" ],
					"fontsize" : 12.0
				}

			}
, 			{
				"box" : 				{
					"maxclass" : "number",
					"maximum" : 127,
					"patching_rect" : [ 482.0, 561.0, 47.0, 20.0 ],
					"numinlets" : 1,
					"id" : "obj-172",
					"fontname" : "Arial",
					"numoutlets" : 2,
					"minimum" : 0,
					"outlettype" : [ "int", "bang" ],
					"fontsize" : 12.0
				}

			}
, 			{
				"box" : 				{
					"maxclass" : "live.button",
					"varname" : "live.button[8]",
					"patching_rect" : [ 212.0, 561.0, 20.0, 20.0 ],
					"numinlets" : 1,
					"id" : "obj-173",
					"parameter_enable" : 1,
					"numoutlets" : 1,
					"outlettype" : [ "" ],
					"saved_attribute_attributes" : 					{
						"valueof" : 						{
							"parameter_type" : 2,
							"parameter_initial_enable" : 0,
							"parameter_shortname" : "live.button",
							"parameter_modmax" : 127.0,
							"parameter_longname" : "live.button[9]",
							"parameter_modmin" : 0.0,
							"parameter_linknames" : 0,
							"parameter_modmode" : 0,
							"parameter_info" : "",
							"parameter_units" : "",
							"parameter_order" : 0,
							"parameter_defer" : 0,
							"parameter_speedlim" : 1.0,
							"parameter_steps" : 0,
							"parameter_invisible" : 0,
							"parameter_enum" : [ "off", "on" ],
							"parameter_exponent" : 1.0,
							"parameter_annotation_name" : "",
							"parameter_unitstyle" : 10,
							"parameter_mmax" : 1.0,
							"parameter_mmin" : 0.0
						}

					}

				}

			}
, 			{
				"box" : 				{
					"maxclass" : "toggle",
					"patching_rect" : [ 382.0, 561.0, 20.0, 20.0 ],
					"numinlets" : 1,
					"id" : "obj-174",
					"numoutlets" : 1,
					"outlettype" : [ "int" ]
				}

			}
, 			{
				"box" : 				{
					"maxclass" : "newobj",
					"text" : "ALTOSC_button /7",
					"patching_rect" : [ 52.0, 533.0, 111.0, 20.0 ],
					"numinlets" : 1,
					"id" : "obj-175",
					"fontname" : "Arial",
					"numoutlets" : 1,
					"outlettype" : [ "" ],
					"fontsize" : 12.0
				}

			}
, 			{
				"box" : 				{
					"maxclass" : "newobj",
					"text" : "t i b",
					"hidden" : 1,
					"patching_rect" : [ 422.0, 503.0, 32.5, 20.0 ],
					"numinlets" : 1,
					"id" : "obj-144",
					"fontname" : "Arial",
					"numoutlets" : 2,
					"outlettype" : [ "int", "bang" ],
					"fontsize" : 12.0
				}

			}
, 			{
				"box" : 				{
					"maxclass" : "comment",
					"text" : "Button 7",
					"patching_rect" : [ 62.0, 497.0, 109.0, 29.0 ],
					"numinlets" : 1,
					"id" : "obj-145",
					"fontname" : "Arial",
					"numoutlets" : 0,
					"fontface" : 1,
					"fontsize" : 20.0
				}

			}
, 			{
				"box" : 				{
					"maxclass" : "comment",
					"text" : "Assine Button",
					"patching_rect" : [ 182.0, 473.0, 84.0, 20.0 ],
					"numinlets" : 1,
					"id" : "obj-146",
					"fontname" : "Arial",
					"numoutlets" : 0,
					"fontsize" : 12.0
				}

			}
, 			{
				"box" : 				{
					"maxclass" : "comment",
					"text" : "      Tup (toggle)",
					"patching_rect" : [ 282.0, 501.0, 101.0, 20.0 ],
					"numinlets" : 1,
					"id" : "obj-147",
					"fontname" : "Arial",
					"numoutlets" : 0,
					"fontsize" : 12.0
				}

			}
, 			{
				"box" : 				{
					"maxclass" : "comment",
					"text" : " OSC value",
					"patching_rect" : [ 352.0, 473.0, 95.0, 20.0 ],
					"numinlets" : 1,
					"id" : "obj-148",
					"fontname" : "Arial",
					"numoutlets" : 0,
					"fontsize" : 12.0
				}

			}
, 			{
				"box" : 				{
					"maxclass" : "comment",
					"text" : "MIDI value     MIDI  number   MIDI channel",
					"patching_rect" : [ 472.0, 473.0, 256.0, 20.0 ],
					"numinlets" : 1,
					"id" : "obj-149",
					"fontname" : "Arial",
					"numoutlets" : 0,
					"fontsize" : 12.0
				}

			}
, 			{
				"box" : 				{
					"maxclass" : "newobj",
					"text" : "* 127",
					"hidden" : 1,
					"patching_rect" : [ 422.0, 483.0, 39.0, 20.0 ],
					"numinlets" : 2,
					"id" : "obj-150",
					"fontname" : "Arial",
					"numoutlets" : 1,
					"outlettype" : [ "int" ],
					"fontsize" : 12.0
				}

			}
, 			{
				"box" : 				{
					"maxclass" : "newobj",
					"text" : "ctlout",
					"hidden" : 1,
					"patching_rect" : [ 702.0, 501.0, 46.0, 20.0 ],
					"numinlets" : 3,
					"id" : "obj-151",
					"fontname" : "Arial",
					"numoutlets" : 0,
					"fontsize" : 12.0
				}

			}
, 			{
				"box" : 				{
					"maxclass" : "number",
					"maximum" : 16,
					"patching_rect" : [ 642.0, 501.0, 50.0, 20.0 ],
					"numinlets" : 1,
					"id" : "obj-152",
					"fontname" : "Arial",
					"numoutlets" : 2,
					"minimum" : 1,
					"outlettype" : [ "int", "bang" ],
					"fontsize" : 12.0
				}

			}
, 			{
				"box" : 				{
					"maxclass" : "number",
					"patching_rect" : [ 562.0, 501.0, 50.0, 20.0 ],
					"numinlets" : 1,
					"id" : "obj-153",
					"fontname" : "Arial",
					"numoutlets" : 2,
					"minimum" : 0,
					"outlettype" : [ "int", "bang" ],
					"fontsize" : 12.0
				}

			}
, 			{
				"box" : 				{
					"maxclass" : "number",
					"maximum" : 127,
					"patching_rect" : [ 482.0, 501.0, 47.0, 20.0 ],
					"numinlets" : 1,
					"id" : "obj-154",
					"fontname" : "Arial",
					"numoutlets" : 2,
					"minimum" : 0,
					"outlettype" : [ "int", "bang" ],
					"fontsize" : 12.0
				}

			}
, 			{
				"box" : 				{
					"maxclass" : "live.button",
					"varname" : "live.button[6]",
					"patching_rect" : [ 212.0, 501.0, 20.0, 20.0 ],
					"numinlets" : 1,
					"id" : "obj-155",
					"parameter_enable" : 1,
					"numoutlets" : 1,
					"outlettype" : [ "" ],
					"saved_attribute_attributes" : 					{
						"valueof" : 						{
							"parameter_type" : 2,
							"parameter_initial_enable" : 0,
							"parameter_shortname" : "live.button",
							"parameter_modmax" : 127.0,
							"parameter_longname" : "live.button[8]",
							"parameter_modmin" : 0.0,
							"parameter_linknames" : 0,
							"parameter_modmode" : 0,
							"parameter_info" : "",
							"parameter_units" : "",
							"parameter_order" : 0,
							"parameter_defer" : 0,
							"parameter_speedlim" : 1.0,
							"parameter_steps" : 0,
							"parameter_invisible" : 0,
							"parameter_enum" : [ "off", "on" ],
							"parameter_exponent" : 1.0,
							"parameter_annotation_name" : "",
							"parameter_unitstyle" : 10,
							"parameter_mmax" : 1.0,
							"parameter_mmin" : 0.0
						}

					}

				}

			}
, 			{
				"box" : 				{
					"maxclass" : "toggle",
					"patching_rect" : [ 382.0, 501.0, 20.0, 20.0 ],
					"numinlets" : 1,
					"id" : "obj-156",
					"numoutlets" : 1,
					"outlettype" : [ "int" ]
				}

			}
, 			{
				"box" : 				{
					"maxclass" : "newobj",
					"text" : "ALTOSC_button /6",
					"patching_rect" : [ 52.0, 473.0, 111.0, 20.0 ],
					"numinlets" : 1,
					"id" : "obj-157",
					"fontname" : "Arial",
					"numoutlets" : 1,
					"outlettype" : [ "" ],
					"fontsize" : 12.0
				}

			}
, 			{
				"box" : 				{
					"maxclass" : "newobj",
					"text" : "t i b",
					"hidden" : 1,
					"patching_rect" : [ 422.0, 443.0, 32.5, 20.0 ],
					"numinlets" : 1,
					"id" : "obj-126",
					"fontname" : "Arial",
					"numoutlets" : 2,
					"outlettype" : [ "int", "bang" ],
					"fontsize" : 12.0
				}

			}
, 			{
				"box" : 				{
					"maxclass" : "comment",
					"text" : "Button 6",
					"patching_rect" : [ 62.0, 437.0, 109.0, 29.0 ],
					"numinlets" : 1,
					"id" : "obj-127",
					"fontname" : "Arial",
					"numoutlets" : 0,
					"fontface" : 1,
					"fontsize" : 20.0
				}

			}
, 			{
				"box" : 				{
					"maxclass" : "comment",
					"text" : "Assine Button",
					"patching_rect" : [ 182.0, 413.0, 84.0, 20.0 ],
					"numinlets" : 1,
					"id" : "obj-128",
					"fontname" : "Arial",
					"numoutlets" : 0,
					"fontsize" : 12.0
				}

			}
, 			{
				"box" : 				{
					"maxclass" : "comment",
					"text" : "      Tup (toggle)",
					"patching_rect" : [ 282.0, 441.0, 101.0, 20.0 ],
					"numinlets" : 1,
					"id" : "obj-129",
					"fontname" : "Arial",
					"numoutlets" : 0,
					"fontsize" : 12.0
				}

			}
, 			{
				"box" : 				{
					"maxclass" : "comment",
					"text" : " OSC value",
					"patching_rect" : [ 352.0, 413.0, 95.0, 20.0 ],
					"numinlets" : 1,
					"id" : "obj-130",
					"fontname" : "Arial",
					"numoutlets" : 0,
					"fontsize" : 12.0
				}

			}
, 			{
				"box" : 				{
					"maxclass" : "comment",
					"text" : "MIDI value     MIDI  number   MIDI channel",
					"patching_rect" : [ 472.0, 413.0, 256.0, 20.0 ],
					"numinlets" : 1,
					"id" : "obj-131",
					"fontname" : "Arial",
					"numoutlets" : 0,
					"fontsize" : 12.0
				}

			}
, 			{
				"box" : 				{
					"maxclass" : "newobj",
					"text" : "* 127",
					"hidden" : 1,
					"patching_rect" : [ 422.0, 423.0, 39.0, 20.0 ],
					"numinlets" : 2,
					"id" : "obj-132",
					"fontname" : "Arial",
					"numoutlets" : 1,
					"outlettype" : [ "int" ],
					"fontsize" : 12.0
				}

			}
, 			{
				"box" : 				{
					"maxclass" : "newobj",
					"text" : "ctlout",
					"hidden" : 1,
					"patching_rect" : [ 702.0, 441.0, 46.0, 20.0 ],
					"numinlets" : 3,
					"id" : "obj-133",
					"fontname" : "Arial",
					"numoutlets" : 0,
					"fontsize" : 12.0
				}

			}
, 			{
				"box" : 				{
					"maxclass" : "number",
					"maximum" : 16,
					"patching_rect" : [ 642.0, 441.0, 50.0, 20.0 ],
					"numinlets" : 1,
					"id" : "obj-134",
					"fontname" : "Arial",
					"numoutlets" : 2,
					"minimum" : 1,
					"outlettype" : [ "int", "bang" ],
					"fontsize" : 12.0
				}

			}
, 			{
				"box" : 				{
					"maxclass" : "number",
					"patching_rect" : [ 562.0, 441.0, 50.0, 20.0 ],
					"numinlets" : 1,
					"id" : "obj-135",
					"fontname" : "Arial",
					"numoutlets" : 2,
					"minimum" : 0,
					"outlettype" : [ "int", "bang" ],
					"fontsize" : 12.0
				}

			}
, 			{
				"box" : 				{
					"maxclass" : "number",
					"maximum" : 127,
					"patching_rect" : [ 482.0, 441.0, 47.0, 20.0 ],
					"numinlets" : 1,
					"id" : "obj-136",
					"fontname" : "Arial",
					"numoutlets" : 2,
					"minimum" : 0,
					"outlettype" : [ "int", "bang" ],
					"fontsize" : 12.0
				}

			}
, 			{
				"box" : 				{
					"maxclass" : "live.button",
					"varname" : "live.button[5]",
					"patching_rect" : [ 212.0, 441.0, 20.0, 20.0 ],
					"numinlets" : 1,
					"id" : "obj-137",
					"parameter_enable" : 1,
					"numoutlets" : 1,
					"outlettype" : [ "" ],
					"saved_attribute_attributes" : 					{
						"valueof" : 						{
							"parameter_type" : 2,
							"parameter_initial_enable" : 0,
							"parameter_shortname" : "live.button",
							"parameter_modmax" : 127.0,
							"parameter_longname" : "live.button[5]",
							"parameter_modmin" : 0.0,
							"parameter_linknames" : 0,
							"parameter_modmode" : 0,
							"parameter_info" : "",
							"parameter_units" : "",
							"parameter_order" : 0,
							"parameter_defer" : 0,
							"parameter_speedlim" : 1.0,
							"parameter_steps" : 0,
							"parameter_invisible" : 0,
							"parameter_enum" : [ "off", "on" ],
							"parameter_exponent" : 1.0,
							"parameter_annotation_name" : "",
							"parameter_unitstyle" : 10,
							"parameter_mmax" : 1.0,
							"parameter_mmin" : 0.0
						}

					}

				}

			}
, 			{
				"box" : 				{
					"maxclass" : "toggle",
					"patching_rect" : [ 382.0, 441.0, 20.0, 20.0 ],
					"numinlets" : 1,
					"id" : "obj-138",
					"numoutlets" : 1,
					"outlettype" : [ "int" ]
				}

			}
, 			{
				"box" : 				{
					"maxclass" : "newobj",
					"text" : "ALTOSC_button /5",
					"patching_rect" : [ 52.0, 413.0, 111.0, 20.0 ],
					"numinlets" : 1,
					"id" : "obj-139",
					"fontname" : "Arial",
					"numoutlets" : 1,
					"outlettype" : [ "" ],
					"fontsize" : 12.0
				}

			}
, 			{
				"box" : 				{
					"maxclass" : "newobj",
					"text" : "t i b",
					"hidden" : 1,
					"patching_rect" : [ 422.0, 383.0, 32.5, 20.0 ],
					"numinlets" : 1,
					"id" : "obj-108",
					"fontname" : "Arial",
					"numoutlets" : 2,
					"outlettype" : [ "int", "bang" ],
					"fontsize" : 12.0
				}

			}
, 			{
				"box" : 				{
					"maxclass" : "comment",
					"text" : "Button 5",
					"patching_rect" : [ 62.0, 377.0, 109.0, 29.0 ],
					"numinlets" : 1,
					"id" : "obj-109",
					"fontname" : "Arial",
					"numoutlets" : 0,
					"fontface" : 1,
					"fontsize" : 20.0
				}

			}
, 			{
				"box" : 				{
					"maxclass" : "comment",
					"text" : "Assine Button",
					"patching_rect" : [ 182.0, 353.0, 84.0, 20.0 ],
					"numinlets" : 1,
					"id" : "obj-110",
					"fontname" : "Arial",
					"numoutlets" : 0,
					"fontsize" : 12.0
				}

			}
, 			{
				"box" : 				{
					"maxclass" : "comment",
					"text" : "      Tup (toggle)",
					"patching_rect" : [ 282.0, 381.0, 101.0, 20.0 ],
					"numinlets" : 1,
					"id" : "obj-111",
					"fontname" : "Arial",
					"numoutlets" : 0,
					"fontsize" : 12.0
				}

			}
, 			{
				"box" : 				{
					"maxclass" : "comment",
					"text" : " OSC value",
					"patching_rect" : [ 352.0, 353.0, 95.0, 20.0 ],
					"numinlets" : 1,
					"id" : "obj-112",
					"fontname" : "Arial",
					"numoutlets" : 0,
					"fontsize" : 12.0
				}

			}
, 			{
				"box" : 				{
					"maxclass" : "comment",
					"text" : "MIDI value     MIDI  number   MIDI channel",
					"patching_rect" : [ 472.0, 353.0, 256.0, 20.0 ],
					"numinlets" : 1,
					"id" : "obj-113",
					"fontname" : "Arial",
					"numoutlets" : 0,
					"fontsize" : 12.0
				}

			}
, 			{
				"box" : 				{
					"maxclass" : "newobj",
					"text" : "* 127",
					"hidden" : 1,
					"patching_rect" : [ 422.0, 363.0, 39.0, 20.0 ],
					"numinlets" : 2,
					"id" : "obj-114",
					"fontname" : "Arial",
					"numoutlets" : 1,
					"outlettype" : [ "int" ],
					"fontsize" : 12.0
				}

			}
, 			{
				"box" : 				{
					"maxclass" : "newobj",
					"text" : "ctlout",
					"hidden" : 1,
					"patching_rect" : [ 702.0, 381.0, 46.0, 20.0 ],
					"numinlets" : 3,
					"id" : "obj-115",
					"fontname" : "Arial",
					"numoutlets" : 0,
					"fontsize" : 12.0
				}

			}
, 			{
				"box" : 				{
					"maxclass" : "number",
					"maximum" : 16,
					"patching_rect" : [ 642.0, 381.0, 50.0, 20.0 ],
					"numinlets" : 1,
					"id" : "obj-116",
					"fontname" : "Arial",
					"numoutlets" : 2,
					"minimum" : 1,
					"outlettype" : [ "int", "bang" ],
					"fontsize" : 12.0
				}

			}
, 			{
				"box" : 				{
					"maxclass" : "number",
					"patching_rect" : [ 562.0, 381.0, 50.0, 20.0 ],
					"numinlets" : 1,
					"id" : "obj-117",
					"fontname" : "Arial",
					"numoutlets" : 2,
					"minimum" : 0,
					"outlettype" : [ "int", "bang" ],
					"fontsize" : 12.0
				}

			}
, 			{
				"box" : 				{
					"maxclass" : "number",
					"maximum" : 127,
					"patching_rect" : [ 482.0, 381.0, 47.0, 20.0 ],
					"numinlets" : 1,
					"id" : "obj-118",
					"fontname" : "Arial",
					"numoutlets" : 2,
					"minimum" : 0,
					"outlettype" : [ "int", "bang" ],
					"fontsize" : 12.0
				}

			}
, 			{
				"box" : 				{
					"maxclass" : "live.button",
					"varname" : "live.button[4]",
					"patching_rect" : [ 212.0, 381.0, 20.0, 20.0 ],
					"numinlets" : 1,
					"id" : "obj-119",
					"parameter_enable" : 1,
					"numoutlets" : 1,
					"outlettype" : [ "" ],
					"saved_attribute_attributes" : 					{
						"valueof" : 						{
							"parameter_type" : 2,
							"parameter_initial_enable" : 0,
							"parameter_shortname" : "live.button",
							"parameter_modmax" : 127.0,
							"parameter_longname" : "live.button[4]",
							"parameter_modmin" : 0.0,
							"parameter_linknames" : 0,
							"parameter_modmode" : 0,
							"parameter_info" : "",
							"parameter_units" : "",
							"parameter_order" : 0,
							"parameter_defer" : 0,
							"parameter_speedlim" : 1.0,
							"parameter_steps" : 0,
							"parameter_invisible" : 0,
							"parameter_enum" : [ "off", "on" ],
							"parameter_exponent" : 1.0,
							"parameter_annotation_name" : "",
							"parameter_unitstyle" : 10,
							"parameter_mmax" : 1.0,
							"parameter_mmin" : 0.0
						}

					}

				}

			}
, 			{
				"box" : 				{
					"maxclass" : "toggle",
					"patching_rect" : [ 382.0, 381.0, 20.0, 20.0 ],
					"numinlets" : 1,
					"id" : "obj-120",
					"numoutlets" : 1,
					"outlettype" : [ "int" ]
				}

			}
, 			{
				"box" : 				{
					"maxclass" : "newobj",
					"text" : "ALTOSC_button /4",
					"patching_rect" : [ 52.0, 353.0, 111.0, 20.0 ],
					"numinlets" : 1,
					"id" : "obj-121",
					"fontname" : "Arial",
					"numoutlets" : 1,
					"outlettype" : [ "" ],
					"fontsize" : 12.0
				}

			}
, 			{
				"box" : 				{
					"maxclass" : "newobj",
					"text" : "t i b",
					"hidden" : 1,
					"patching_rect" : [ 422.0, 323.0, 32.5, 20.0 ],
					"numinlets" : 1,
					"id" : "obj-90",
					"fontname" : "Arial",
					"numoutlets" : 2,
					"outlettype" : [ "int", "bang" ],
					"fontsize" : 12.0
				}

			}
, 			{
				"box" : 				{
					"maxclass" : "comment",
					"text" : "Button 4",
					"patching_rect" : [ 62.0, 317.0, 109.0, 29.0 ],
					"numinlets" : 1,
					"id" : "obj-91",
					"fontname" : "Arial",
					"numoutlets" : 0,
					"fontface" : 1,
					"fontsize" : 20.0
				}

			}
, 			{
				"box" : 				{
					"maxclass" : "comment",
					"text" : "Assine Button",
					"patching_rect" : [ 182.0, 293.0, 84.0, 20.0 ],
					"numinlets" : 1,
					"id" : "obj-92",
					"fontname" : "Arial",
					"numoutlets" : 0,
					"fontsize" : 12.0
				}

			}
, 			{
				"box" : 				{
					"maxclass" : "comment",
					"text" : "      Tup (toggle)",
					"patching_rect" : [ 282.0, 321.0, 101.0, 20.0 ],
					"numinlets" : 1,
					"id" : "obj-93",
					"fontname" : "Arial",
					"numoutlets" : 0,
					"fontsize" : 12.0
				}

			}
, 			{
				"box" : 				{
					"maxclass" : "comment",
					"text" : " OSC value",
					"patching_rect" : [ 352.0, 293.0, 95.0, 20.0 ],
					"numinlets" : 1,
					"id" : "obj-94",
					"fontname" : "Arial",
					"numoutlets" : 0,
					"fontsize" : 12.0
				}

			}
, 			{
				"box" : 				{
					"maxclass" : "comment",
					"text" : "MIDI value     MIDI  number   MIDI channel",
					"patching_rect" : [ 472.0, 293.0, 256.0, 20.0 ],
					"numinlets" : 1,
					"id" : "obj-95",
					"fontname" : "Arial",
					"numoutlets" : 0,
					"fontsize" : 12.0
				}

			}
, 			{
				"box" : 				{
					"maxclass" : "newobj",
					"text" : "* 127",
					"hidden" : 1,
					"patching_rect" : [ 422.0, 303.0, 39.0, 20.0 ],
					"numinlets" : 2,
					"id" : "obj-96",
					"fontname" : "Arial",
					"numoutlets" : 1,
					"outlettype" : [ "int" ],
					"fontsize" : 12.0
				}

			}
, 			{
				"box" : 				{
					"maxclass" : "newobj",
					"text" : "ctlout",
					"hidden" : 1,
					"patching_rect" : [ 702.0, 321.0, 46.0, 20.0 ],
					"numinlets" : 3,
					"id" : "obj-97",
					"fontname" : "Arial",
					"numoutlets" : 0,
					"fontsize" : 12.0
				}

			}
, 			{
				"box" : 				{
					"maxclass" : "number",
					"maximum" : 16,
					"patching_rect" : [ 642.0, 321.0, 50.0, 20.0 ],
					"numinlets" : 1,
					"id" : "obj-98",
					"fontname" : "Arial",
					"numoutlets" : 2,
					"minimum" : 1,
					"outlettype" : [ "int", "bang" ],
					"fontsize" : 12.0
				}

			}
, 			{
				"box" : 				{
					"maxclass" : "number",
					"patching_rect" : [ 562.0, 321.0, 50.0, 20.0 ],
					"numinlets" : 1,
					"id" : "obj-99",
					"fontname" : "Arial",
					"numoutlets" : 2,
					"minimum" : 0,
					"outlettype" : [ "int", "bang" ],
					"fontsize" : 12.0
				}

			}
, 			{
				"box" : 				{
					"maxclass" : "number",
					"maximum" : 127,
					"patching_rect" : [ 482.0, 321.0, 47.0, 20.0 ],
					"numinlets" : 1,
					"id" : "obj-100",
					"fontname" : "Arial",
					"numoutlets" : 2,
					"minimum" : 0,
					"outlettype" : [ "int", "bang" ],
					"fontsize" : 12.0
				}

			}
, 			{
				"box" : 				{
					"maxclass" : "live.button",
					"varname" : "live.button[3]",
					"patching_rect" : [ 212.0, 321.0, 20.0, 20.0 ],
					"numinlets" : 1,
					"id" : "obj-101",
					"parameter_enable" : 1,
					"numoutlets" : 1,
					"outlettype" : [ "" ],
					"saved_attribute_attributes" : 					{
						"valueof" : 						{
							"parameter_type" : 2,
							"parameter_initial_enable" : 0,
							"parameter_shortname" : "live.button",
							"parameter_modmax" : 127.0,
							"parameter_longname" : "live.button[3]",
							"parameter_modmin" : 0.0,
							"parameter_linknames" : 0,
							"parameter_modmode" : 0,
							"parameter_info" : "",
							"parameter_units" : "",
							"parameter_order" : 0,
							"parameter_defer" : 0,
							"parameter_speedlim" : 1.0,
							"parameter_steps" : 0,
							"parameter_invisible" : 0,
							"parameter_enum" : [ "off", "on" ],
							"parameter_exponent" : 1.0,
							"parameter_annotation_name" : "",
							"parameter_unitstyle" : 10,
							"parameter_mmax" : 1.0,
							"parameter_mmin" : 0.0
						}

					}

				}

			}
, 			{
				"box" : 				{
					"maxclass" : "toggle",
					"patching_rect" : [ 382.0, 321.0, 20.0, 20.0 ],
					"numinlets" : 1,
					"id" : "obj-102",
					"numoutlets" : 1,
					"outlettype" : [ "int" ]
				}

			}
, 			{
				"box" : 				{
					"maxclass" : "newobj",
					"text" : "ALTOSC_button /3",
					"patching_rect" : [ 52.0, 293.0, 111.0, 20.0 ],
					"numinlets" : 1,
					"id" : "obj-103",
					"fontname" : "Arial",
					"numoutlets" : 1,
					"outlettype" : [ "" ],
					"fontsize" : 12.0
				}

			}
, 			{
				"box" : 				{
					"maxclass" : "newobj",
					"text" : "t i b",
					"hidden" : 1,
					"patching_rect" : [ 422.0, 263.0, 32.5, 20.0 ],
					"numinlets" : 1,
					"id" : "obj-72",
					"fontname" : "Arial",
					"numoutlets" : 2,
					"outlettype" : [ "int", "bang" ],
					"fontsize" : 12.0
				}

			}
, 			{
				"box" : 				{
					"maxclass" : "comment",
					"text" : "Button 3",
					"patching_rect" : [ 62.0, 257.0, 109.0, 29.0 ],
					"numinlets" : 1,
					"id" : "obj-73",
					"fontname" : "Arial",
					"numoutlets" : 0,
					"fontface" : 1,
					"fontsize" : 20.0
				}

			}
, 			{
				"box" : 				{
					"maxclass" : "comment",
					"text" : "Assine Button",
					"patching_rect" : [ 182.0, 233.0, 84.0, 20.0 ],
					"numinlets" : 1,
					"id" : "obj-74",
					"fontname" : "Arial",
					"numoutlets" : 0,
					"fontsize" : 12.0
				}

			}
, 			{
				"box" : 				{
					"maxclass" : "comment",
					"text" : "      Tup (toggle)",
					"patching_rect" : [ 282.0, 261.0, 101.0, 20.0 ],
					"numinlets" : 1,
					"id" : "obj-75",
					"fontname" : "Arial",
					"numoutlets" : 0,
					"fontsize" : 12.0
				}

			}
, 			{
				"box" : 				{
					"maxclass" : "comment",
					"text" : " OSC value",
					"patching_rect" : [ 352.0, 233.0, 95.0, 20.0 ],
					"numinlets" : 1,
					"id" : "obj-76",
					"fontname" : "Arial",
					"numoutlets" : 0,
					"fontsize" : 12.0
				}

			}
, 			{
				"box" : 				{
					"maxclass" : "comment",
					"text" : "MIDI value     MIDI  number   MIDI channel",
					"patching_rect" : [ 472.0, 233.0, 256.0, 20.0 ],
					"numinlets" : 1,
					"id" : "obj-77",
					"fontname" : "Arial",
					"numoutlets" : 0,
					"fontsize" : 12.0
				}

			}
, 			{
				"box" : 				{
					"maxclass" : "newobj",
					"text" : "* 127",
					"hidden" : 1,
					"patching_rect" : [ 422.0, 243.0, 39.0, 20.0 ],
					"numinlets" : 2,
					"id" : "obj-78",
					"fontname" : "Arial",
					"numoutlets" : 1,
					"outlettype" : [ "int" ],
					"fontsize" : 12.0
				}

			}
, 			{
				"box" : 				{
					"maxclass" : "newobj",
					"text" : "ctlout",
					"hidden" : 1,
					"patching_rect" : [ 702.0, 261.0, 46.0, 20.0 ],
					"numinlets" : 3,
					"id" : "obj-79",
					"fontname" : "Arial",
					"numoutlets" : 0,
					"fontsize" : 12.0
				}

			}
, 			{
				"box" : 				{
					"maxclass" : "number",
					"maximum" : 16,
					"patching_rect" : [ 642.0, 261.0, 50.0, 20.0 ],
					"numinlets" : 1,
					"id" : "obj-80",
					"fontname" : "Arial",
					"numoutlets" : 2,
					"minimum" : 1,
					"outlettype" : [ "int", "bang" ],
					"fontsize" : 12.0
				}

			}
, 			{
				"box" : 				{
					"maxclass" : "number",
					"patching_rect" : [ 562.0, 261.0, 50.0, 20.0 ],
					"numinlets" : 1,
					"id" : "obj-81",
					"fontname" : "Arial",
					"numoutlets" : 2,
					"minimum" : 0,
					"outlettype" : [ "int", "bang" ],
					"fontsize" : 12.0
				}

			}
, 			{
				"box" : 				{
					"maxclass" : "number",
					"maximum" : 127,
					"patching_rect" : [ 482.0, 261.0, 47.0, 20.0 ],
					"numinlets" : 1,
					"id" : "obj-82",
					"fontname" : "Arial",
					"numoutlets" : 2,
					"minimum" : 0,
					"outlettype" : [ "int", "bang" ],
					"fontsize" : 12.0
				}

			}
, 			{
				"box" : 				{
					"maxclass" : "live.button",
					"varname" : "live.button[2]",
					"patching_rect" : [ 212.0, 261.0, 20.0, 20.0 ],
					"numinlets" : 1,
					"id" : "obj-83",
					"parameter_enable" : 1,
					"numoutlets" : 1,
					"outlettype" : [ "" ],
					"saved_attribute_attributes" : 					{
						"valueof" : 						{
							"parameter_type" : 2,
							"parameter_initial_enable" : 0,
							"parameter_shortname" : "live.button",
							"parameter_modmax" : 127.0,
							"parameter_longname" : "live.button[2]",
							"parameter_modmin" : 0.0,
							"parameter_linknames" : 0,
							"parameter_modmode" : 0,
							"parameter_info" : "",
							"parameter_units" : "",
							"parameter_order" : 0,
							"parameter_defer" : 0,
							"parameter_speedlim" : 1.0,
							"parameter_steps" : 0,
							"parameter_invisible" : 0,
							"parameter_enum" : [ "off", "on" ],
							"parameter_exponent" : 1.0,
							"parameter_annotation_name" : "",
							"parameter_unitstyle" : 10,
							"parameter_mmax" : 1.0,
							"parameter_mmin" : 0.0
						}

					}

				}

			}
, 			{
				"box" : 				{
					"maxclass" : "toggle",
					"patching_rect" : [ 382.0, 261.0, 20.0, 20.0 ],
					"numinlets" : 1,
					"id" : "obj-84",
					"numoutlets" : 1,
					"outlettype" : [ "int" ]
				}

			}
, 			{
				"box" : 				{
					"maxclass" : "newobj",
					"text" : "ALTOSC_button /2",
					"patching_rect" : [ 52.0, 233.0, 111.0, 20.0 ],
					"numinlets" : 1,
					"id" : "obj-85",
					"fontname" : "Arial",
					"numoutlets" : 1,
					"outlettype" : [ "" ],
					"fontsize" : 12.0
				}

			}
, 			{
				"box" : 				{
					"maxclass" : "newobj",
					"text" : "t i b",
					"hidden" : 1,
					"patching_rect" : [ 422.0, 203.0, 32.5, 20.0 ],
					"numinlets" : 1,
					"id" : "obj-54",
					"fontname" : "Arial",
					"numoutlets" : 2,
					"outlettype" : [ "int", "bang" ],
					"fontsize" : 12.0
				}

			}
, 			{
				"box" : 				{
					"maxclass" : "comment",
					"text" : "Button 2",
					"patching_rect" : [ 62.0, 197.0, 109.0, 29.0 ],
					"numinlets" : 1,
					"id" : "obj-55",
					"fontname" : "Arial",
					"numoutlets" : 0,
					"fontface" : 1,
					"fontsize" : 20.0
				}

			}
, 			{
				"box" : 				{
					"maxclass" : "comment",
					"text" : "Assine Button",
					"patching_rect" : [ 182.0, 173.0, 84.0, 20.0 ],
					"numinlets" : 1,
					"id" : "obj-56",
					"fontname" : "Arial",
					"numoutlets" : 0,
					"fontsize" : 12.0
				}

			}
, 			{
				"box" : 				{
					"maxclass" : "comment",
					"text" : "      Tup (toggle)",
					"patching_rect" : [ 282.0, 201.0, 101.0, 20.0 ],
					"numinlets" : 1,
					"id" : "obj-57",
					"fontname" : "Arial",
					"numoutlets" : 0,
					"fontsize" : 12.0
				}

			}
, 			{
				"box" : 				{
					"maxclass" : "comment",
					"text" : " OSC value",
					"patching_rect" : [ 352.0, 173.0, 95.0, 20.0 ],
					"numinlets" : 1,
					"id" : "obj-58",
					"fontname" : "Arial",
					"numoutlets" : 0,
					"fontsize" : 12.0
				}

			}
, 			{
				"box" : 				{
					"maxclass" : "comment",
					"text" : "MIDI value     MIDI  number   MIDI channel",
					"patching_rect" : [ 472.0, 173.0, 256.0, 20.0 ],
					"numinlets" : 1,
					"id" : "obj-59",
					"fontname" : "Arial",
					"numoutlets" : 0,
					"fontsize" : 12.0
				}

			}
, 			{
				"box" : 				{
					"maxclass" : "newobj",
					"text" : "* 127",
					"hidden" : 1,
					"patching_rect" : [ 422.0, 183.0, 39.0, 20.0 ],
					"numinlets" : 2,
					"id" : "obj-60",
					"fontname" : "Arial",
					"numoutlets" : 1,
					"outlettype" : [ "int" ],
					"fontsize" : 12.0
				}

			}
, 			{
				"box" : 				{
					"maxclass" : "newobj",
					"text" : "ctlout",
					"hidden" : 1,
					"patching_rect" : [ 702.0, 201.0, 46.0, 20.0 ],
					"numinlets" : 3,
					"id" : "obj-61",
					"fontname" : "Arial",
					"numoutlets" : 0,
					"fontsize" : 12.0
				}

			}
, 			{
				"box" : 				{
					"maxclass" : "number",
					"maximum" : 16,
					"patching_rect" : [ 642.0, 201.0, 50.0, 20.0 ],
					"numinlets" : 1,
					"id" : "obj-62",
					"fontname" : "Arial",
					"numoutlets" : 2,
					"minimum" : 1,
					"outlettype" : [ "int", "bang" ],
					"fontsize" : 12.0
				}

			}
, 			{
				"box" : 				{
					"maxclass" : "number",
					"patching_rect" : [ 562.0, 201.0, 50.0, 20.0 ],
					"numinlets" : 1,
					"id" : "obj-63",
					"fontname" : "Arial",
					"numoutlets" : 2,
					"minimum" : 0,
					"outlettype" : [ "int", "bang" ],
					"fontsize" : 12.0
				}

			}
, 			{
				"box" : 				{
					"maxclass" : "number",
					"maximum" : 127,
					"patching_rect" : [ 482.0, 201.0, 47.0, 20.0 ],
					"numinlets" : 1,
					"id" : "obj-64",
					"fontname" : "Arial",
					"numoutlets" : 2,
					"minimum" : 0,
					"outlettype" : [ "int", "bang" ],
					"fontsize" : 12.0
				}

			}
, 			{
				"box" : 				{
					"maxclass" : "live.button",
					"varname" : "live.button[1]",
					"patching_rect" : [ 212.0, 201.0, 20.0, 20.0 ],
					"numinlets" : 1,
					"id" : "obj-65",
					"parameter_enable" : 1,
					"numoutlets" : 1,
					"outlettype" : [ "" ],
					"saved_attribute_attributes" : 					{
						"valueof" : 						{
							"parameter_type" : 2,
							"parameter_initial_enable" : 0,
							"parameter_shortname" : "live.button",
							"parameter_modmax" : 127.0,
							"parameter_longname" : "live.button[1]",
							"parameter_modmin" : 0.0,
							"parameter_linknames" : 0,
							"parameter_modmode" : 0,
							"parameter_info" : "",
							"parameter_units" : "",
							"parameter_order" : 0,
							"parameter_defer" : 0,
							"parameter_speedlim" : 1.0,
							"parameter_steps" : 0,
							"parameter_invisible" : 0,
							"parameter_enum" : [ "off", "on" ],
							"parameter_exponent" : 1.0,
							"parameter_annotation_name" : "",
							"parameter_unitstyle" : 10,
							"parameter_mmax" : 1.0,
							"parameter_mmin" : 0.0
						}

					}

				}

			}
, 			{
				"box" : 				{
					"maxclass" : "toggle",
					"patching_rect" : [ 382.0, 201.0, 20.0, 20.0 ],
					"numinlets" : 1,
					"id" : "obj-66",
					"numoutlets" : 1,
					"outlettype" : [ "int" ]
				}

			}
, 			{
				"box" : 				{
					"maxclass" : "newobj",
					"text" : "ALTOSC_button /1",
					"patching_rect" : [ 52.0, 173.0, 111.0, 20.0 ],
					"numinlets" : 1,
					"id" : "obj-67",
					"fontname" : "Arial",
					"numoutlets" : 1,
					"outlettype" : [ "" ],
					"fontsize" : 12.0
				}

			}
, 			{
				"box" : 				{
					"maxclass" : "newobj",
					"text" : "t i b",
					"hidden" : 1,
					"patching_rect" : [ 422.0, 143.0, 32.5, 20.0 ],
					"numinlets" : 1,
					"id" : "obj-1095",
					"fontname" : "Arial",
					"numoutlets" : 2,
					"outlettype" : [ "int", "bang" ],
					"fontsize" : 12.0
				}

			}
, 			{
				"box" : 				{
					"maxclass" : "comment",
					"text" : "Button 1",
					"patching_rect" : [ 62.0, 137.0, 109.0, 29.0 ],
					"numinlets" : 1,
					"id" : "obj-1075",
					"fontname" : "Arial",
					"numoutlets" : 0,
					"fontface" : 1,
					"fontsize" : 20.0
				}

			}
, 			{
				"box" : 				{
					"maxclass" : "comment",
					"text" : "Assine Button",
					"patching_rect" : [ 182.0, 113.0, 84.0, 20.0 ],
					"numinlets" : 1,
					"id" : "obj-401",
					"fontname" : "Arial",
					"numoutlets" : 0,
					"fontsize" : 12.0
				}

			}
, 			{
				"box" : 				{
					"maxclass" : "comment",
					"text" : "      Tup (toggle)",
					"patching_rect" : [ 282.0, 141.0, 101.0, 20.0 ],
					"numinlets" : 1,
					"id" : "obj-404",
					"fontname" : "Arial",
					"numoutlets" : 0,
					"fontsize" : 12.0
				}

			}
, 			{
				"box" : 				{
					"maxclass" : "comment",
					"text" : " OSC value",
					"patching_rect" : [ 352.0, 113.0, 95.0, 20.0 ],
					"numinlets" : 1,
					"id" : "obj-407",
					"fontname" : "Arial",
					"numoutlets" : 0,
					"fontsize" : 12.0
				}

			}
, 			{
				"box" : 				{
					"maxclass" : "comment",
					"text" : "MIDI value     MIDI  number   MIDI channel",
					"patching_rect" : [ 472.0, 113.0, 256.0, 20.0 ],
					"numinlets" : 1,
					"id" : "obj-408",
					"fontname" : "Arial",
					"numoutlets" : 0,
					"fontsize" : 12.0
				}

			}
, 			{
				"box" : 				{
					"maxclass" : "newobj",
					"text" : "* 127",
					"hidden" : 1,
					"patching_rect" : [ 422.0, 123.0, 39.0, 20.0 ],
					"numinlets" : 2,
					"id" : "obj-412",
					"fontname" : "Arial",
					"numoutlets" : 1,
					"outlettype" : [ "int" ],
					"fontsize" : 12.0
				}

			}
, 			{
				"box" : 				{
					"maxclass" : "newobj",
					"text" : "ctlout",
					"hidden" : 1,
					"patching_rect" : [ 702.0, 141.0, 46.0, 20.0 ],
					"numinlets" : 3,
					"id" : "obj-421",
					"fontname" : "Arial",
					"numoutlets" : 0,
					"fontsize" : 12.0
				}

			}
, 			{
				"box" : 				{
					"maxclass" : "number",
					"maximum" : 16,
					"patching_rect" : [ 642.0, 141.0, 50.0, 20.0 ],
					"numinlets" : 1,
					"id" : "obj-422",
					"fontname" : "Arial",
					"numoutlets" : 2,
					"minimum" : 1,
					"outlettype" : [ "int", "bang" ],
					"fontsize" : 12.0
				}

			}
, 			{
				"box" : 				{
					"maxclass" : "number",
					"patching_rect" : [ 562.0, 141.0, 50.0, 20.0 ],
					"numinlets" : 1,
					"id" : "obj-423",
					"fontname" : "Arial",
					"numoutlets" : 2,
					"minimum" : 0,
					"outlettype" : [ "int", "bang" ],
					"fontsize" : 12.0
				}

			}
, 			{
				"box" : 				{
					"maxclass" : "number",
					"maximum" : 127,
					"patching_rect" : [ 482.0, 141.0, 47.0, 20.0 ],
					"numinlets" : 1,
					"id" : "obj-424",
					"fontname" : "Arial",
					"numoutlets" : 2,
					"minimum" : 0,
					"outlettype" : [ "int", "bang" ],
					"fontsize" : 12.0
				}

			}
, 			{
				"box" : 				{
					"maxclass" : "live.button",
					"varname" : "live.button[7]",
					"patching_rect" : [ 212.0, 141.0, 20.0, 20.0 ],
					"numinlets" : 1,
					"id" : "obj-435",
					"parameter_enable" : 1,
					"numoutlets" : 1,
					"outlettype" : [ "" ],
					"saved_attribute_attributes" : 					{
						"valueof" : 						{
							"parameter_type" : 2,
							"parameter_initial_enable" : 0,
							"parameter_shortname" : "live.button",
							"parameter_modmax" : 127.0,
							"parameter_longname" : "live.button[7]",
							"parameter_modmin" : 0.0,
							"parameter_linknames" : 0,
							"parameter_modmode" : 0,
							"parameter_info" : "",
							"parameter_units" : "",
							"parameter_order" : 0,
							"parameter_defer" : 0,
							"parameter_speedlim" : 1.0,
							"parameter_steps" : 0,
							"parameter_invisible" : 0,
							"parameter_enum" : [ "off", "on" ],
							"parameter_exponent" : 1.0,
							"parameter_annotation_name" : "",
							"parameter_unitstyle" : 10,
							"parameter_mmax" : 1.0,
							"parameter_mmin" : 0.0
						}

					}

				}

			}
, 			{
				"box" : 				{
					"maxclass" : "toggle",
					"patching_rect" : [ 382.0, 141.0, 20.0, 20.0 ],
					"numinlets" : 1,
					"id" : "obj-440",
					"numoutlets" : 1,
					"outlettype" : [ "int" ]
				}

			}
, 			{
				"box" : 				{
					"maxclass" : "newobj",
					"text" : "ALTOSC_button /0",
					"patching_rect" : [ 52.0, 113.0, 111.0, 20.0 ],
					"numinlets" : 1,
					"id" : "obj-2",
					"fontname" : "Arial",
					"numoutlets" : 1,
					"outlettype" : [ "" ],
					"fontsize" : 12.0
				}

			}
, 			{
				"box" : 				{
					"maxclass" : "newobj",
					"text" : "udpreceive 10001",
					"patching_rect" : [ 20.0, 20.0, 106.0, 20.0 ],
					"numinlets" : 1,
					"id" : "obj-38",
					"fontname" : "Arial",
					"numoutlets" : 1,
					"outlettype" : [ "" ],
					"fontsize" : 12.0
				}

			}
, 			{
				"box" : 				{
					"maxclass" : "panel",
					"rounded" : 25,
					"patching_rect" : [ 41.0, 135.0, 156.0, 32.0 ],
					"numinlets" : 1,
					"id" : "obj-323",
					"mode" : 1,
					"numoutlets" : 0,
					"grad1" : [ 1.0, 1.0, 1.0, 1.0 ],
					"grad2" : [ 0.858824, 0.858824, 0.858824, 1.0 ],
					"background" : 1
				}

			}
, 			{
				"box" : 				{
					"maxclass" : "panel",
					"rounded" : 0,
					"patching_rect" : [ 60.0, 110.0, 126.0, 25.0 ],
					"numinlets" : 1,
					"id" : "obj-322",
					"mode" : 1,
					"numoutlets" : 0,
					"grad1" : [ 1.0, 1.0, 1.0, 1.0 ],
					"grad2" : [ 0.670588, 0.670588, 0.670588, 1.0 ],
					"background" : 1
				}

			}
, 			{
				"box" : 				{
					"maxclass" : "panel",
					"patching_rect" : [ 181.0, 135.0, 530.0, 32.0 ],
					"numinlets" : 1,
					"id" : "obj-443",
					"bgcolor" : [ 0.858824, 0.858824, 0.858824, 1.0 ],
					"numoutlets" : 0,
					"grad2" : [ 1.0, 1.0, 1.0, 1.0 ],
					"background" : 1
				}

			}
, 			{
				"box" : 				{
					"maxclass" : "panel",
					"patching_rect" : [ 181.0, 110.0, 530.0, 40.0 ],
					"numinlets" : 1,
					"id" : "obj-451",
					"numoutlets" : 0,
					"background" : 1
				}

			}
, 			{
				"box" : 				{
					"maxclass" : "panel",
					"rounded" : 25,
					"patching_rect" : [ 41.0, 195.0, 156.0, 32.0 ],
					"numinlets" : 1,
					"id" : "obj-68",
					"mode" : 1,
					"numoutlets" : 0,
					"grad1" : [ 1.0, 1.0, 1.0, 1.0 ],
					"grad2" : [ 0.858824, 0.858824, 0.858824, 1.0 ],
					"background" : 1
				}

			}
, 			{
				"box" : 				{
					"maxclass" : "panel",
					"rounded" : 0,
					"patching_rect" : [ 60.0, 170.0, 126.0, 25.0 ],
					"numinlets" : 1,
					"id" : "obj-69",
					"mode" : 1,
					"numoutlets" : 0,
					"grad1" : [ 1.0, 1.0, 1.0, 1.0 ],
					"grad2" : [ 0.670588, 0.670588, 0.670588, 1.0 ],
					"background" : 1
				}

			}
, 			{
				"box" : 				{
					"maxclass" : "panel",
					"patching_rect" : [ 181.0, 195.0, 530.0, 32.0 ],
					"numinlets" : 1,
					"id" : "obj-70",
					"bgcolor" : [ 0.858824, 0.858824, 0.858824, 1.0 ],
					"numoutlets" : 0,
					"grad2" : [ 1.0, 1.0, 1.0, 1.0 ],
					"background" : 1
				}

			}
, 			{
				"box" : 				{
					"maxclass" : "panel",
					"patching_rect" : [ 181.0, 170.0, 530.0, 40.0 ],
					"numinlets" : 1,
					"id" : "obj-71",
					"numoutlets" : 0,
					"background" : 1
				}

			}
, 			{
				"box" : 				{
					"maxclass" : "panel",
					"rounded" : 25,
					"patching_rect" : [ 41.0, 255.0, 156.0, 32.0 ],
					"numinlets" : 1,
					"id" : "obj-86",
					"mode" : 1,
					"numoutlets" : 0,
					"grad1" : [ 1.0, 1.0, 1.0, 1.0 ],
					"grad2" : [ 0.858824, 0.858824, 0.858824, 1.0 ],
					"background" : 1
				}

			}
, 			{
				"box" : 				{
					"maxclass" : "panel",
					"rounded" : 0,
					"patching_rect" : [ 60.0, 230.0, 126.0, 25.0 ],
					"numinlets" : 1,
					"id" : "obj-87",
					"mode" : 1,
					"numoutlets" : 0,
					"grad1" : [ 1.0, 1.0, 1.0, 1.0 ],
					"grad2" : [ 0.670588, 0.670588, 0.670588, 1.0 ],
					"background" : 1
				}

			}
, 			{
				"box" : 				{
					"maxclass" : "panel",
					"patching_rect" : [ 181.0, 255.0, 530.0, 32.0 ],
					"numinlets" : 1,
					"id" : "obj-88",
					"bgcolor" : [ 0.858824, 0.858824, 0.858824, 1.0 ],
					"numoutlets" : 0,
					"grad2" : [ 1.0, 1.0, 1.0, 1.0 ],
					"background" : 1
				}

			}
, 			{
				"box" : 				{
					"maxclass" : "panel",
					"patching_rect" : [ 181.0, 230.0, 530.0, 40.0 ],
					"numinlets" : 1,
					"id" : "obj-89",
					"numoutlets" : 0,
					"background" : 1
				}

			}
, 			{
				"box" : 				{
					"maxclass" : "panel",
					"rounded" : 25,
					"patching_rect" : [ 41.0, 315.0, 156.0, 32.0 ],
					"numinlets" : 1,
					"id" : "obj-104",
					"mode" : 1,
					"numoutlets" : 0,
					"grad1" : [ 1.0, 1.0, 1.0, 1.0 ],
					"grad2" : [ 0.858824, 0.858824, 0.858824, 1.0 ],
					"background" : 1
				}

			}
, 			{
				"box" : 				{
					"maxclass" : "panel",
					"rounded" : 0,
					"patching_rect" : [ 60.0, 290.0, 126.0, 25.0 ],
					"numinlets" : 1,
					"id" : "obj-105",
					"mode" : 1,
					"numoutlets" : 0,
					"grad1" : [ 1.0, 1.0, 1.0, 1.0 ],
					"grad2" : [ 0.670588, 0.670588, 0.670588, 1.0 ],
					"background" : 1
				}

			}
, 			{
				"box" : 				{
					"maxclass" : "panel",
					"rounded" : 25,
					"patching_rect" : [ 41.0, 675.0, 156.0, 32.0 ],
					"numinlets" : 1,
					"id" : "obj-212",
					"mode" : 1,
					"numoutlets" : 0,
					"grad1" : [ 1.0, 1.0, 1.0, 1.0 ],
					"grad2" : [ 0.858824, 0.858824, 0.858824, 1.0 ],
					"background" : 1
				}

			}
, 			{
				"box" : 				{
					"maxclass" : "panel",
					"rounded" : 0,
					"patching_rect" : [ 60.0, 650.0, 126.0, 25.0 ],
					"numinlets" : 1,
					"id" : "obj-213",
					"mode" : 1,
					"numoutlets" : 0,
					"grad1" : [ 1.0, 1.0, 1.0, 1.0 ],
					"grad2" : [ 0.670588, 0.670588, 0.670588, 1.0 ],
					"background" : 1
				}

			}
, 			{
				"box" : 				{
					"maxclass" : "panel",
					"patching_rect" : [ 181.0, 675.0, 530.0, 32.0 ],
					"numinlets" : 1,
					"id" : "obj-214",
					"bgcolor" : [ 0.858824, 0.858824, 0.858824, 1.0 ],
					"numoutlets" : 0,
					"grad2" : [ 1.0, 1.0, 1.0, 1.0 ],
					"background" : 1
				}

			}
, 			{
				"box" : 				{
					"maxclass" : "panel",
					"patching_rect" : [ 181.0, 650.0, 530.0, 40.0 ],
					"numinlets" : 1,
					"id" : "obj-215",
					"numoutlets" : 0,
					"background" : 1
				}

			}
, 			{
				"box" : 				{
					"maxclass" : "panel",
					"rounded" : 25,
					"patching_rect" : [ 41.0, 615.0, 156.0, 32.0 ],
					"numinlets" : 1,
					"id" : "obj-194",
					"mode" : 1,
					"numoutlets" : 0,
					"grad1" : [ 1.0, 1.0, 1.0, 1.0 ],
					"grad2" : [ 0.858824, 0.858824, 0.858824, 1.0 ],
					"background" : 1
				}

			}
, 			{
				"box" : 				{
					"maxclass" : "panel",
					"rounded" : 0,
					"patching_rect" : [ 60.0, 590.0, 126.0, 25.0 ],
					"numinlets" : 1,
					"id" : "obj-195",
					"mode" : 1,
					"numoutlets" : 0,
					"grad1" : [ 1.0, 1.0, 1.0, 1.0 ],
					"grad2" : [ 0.670588, 0.670588, 0.670588, 1.0 ],
					"background" : 1
				}

			}
, 			{
				"box" : 				{
					"maxclass" : "panel",
					"patching_rect" : [ 181.0, 615.0, 530.0, 32.0 ],
					"numinlets" : 1,
					"id" : "obj-196",
					"bgcolor" : [ 0.858824, 0.858824, 0.858824, 1.0 ],
					"numoutlets" : 0,
					"grad2" : [ 1.0, 1.0, 1.0, 1.0 ],
					"background" : 1
				}

			}
, 			{
				"box" : 				{
					"maxclass" : "panel",
					"patching_rect" : [ 181.0, 590.0, 530.0, 40.0 ],
					"numinlets" : 1,
					"id" : "obj-197",
					"numoutlets" : 0,
					"background" : 1
				}

			}
, 			{
				"box" : 				{
					"maxclass" : "panel",
					"rounded" : 25,
					"patching_rect" : [ 41.0, 555.0, 156.0, 32.0 ],
					"numinlets" : 1,
					"id" : "obj-176",
					"mode" : 1,
					"numoutlets" : 0,
					"grad1" : [ 1.0, 1.0, 1.0, 1.0 ],
					"grad2" : [ 0.858824, 0.858824, 0.858824, 1.0 ],
					"background" : 1
				}

			}
, 			{
				"box" : 				{
					"maxclass" : "panel",
					"rounded" : 0,
					"patching_rect" : [ 60.0, 530.0, 126.0, 25.0 ],
					"numinlets" : 1,
					"id" : "obj-177",
					"mode" : 1,
					"numoutlets" : 0,
					"grad1" : [ 1.0, 1.0, 1.0, 1.0 ],
					"grad2" : [ 0.670588, 0.670588, 0.670588, 1.0 ],
					"background" : 1
				}

			}
, 			{
				"box" : 				{
					"maxclass" : "panel",
					"patching_rect" : [ 181.0, 555.0, 530.0, 32.0 ],
					"numinlets" : 1,
					"id" : "obj-178",
					"bgcolor" : [ 0.858824, 0.858824, 0.858824, 1.0 ],
					"numoutlets" : 0,
					"grad2" : [ 1.0, 1.0, 1.0, 1.0 ],
					"background" : 1
				}

			}
, 			{
				"box" : 				{
					"maxclass" : "panel",
					"patching_rect" : [ 181.0, 530.0, 530.0, 40.0 ],
					"numinlets" : 1,
					"id" : "obj-179",
					"numoutlets" : 0,
					"background" : 1
				}

			}
, 			{
				"box" : 				{
					"maxclass" : "panel",
					"rounded" : 25,
					"patching_rect" : [ 41.0, 495.0, 156.0, 32.0 ],
					"numinlets" : 1,
					"id" : "obj-158",
					"mode" : 1,
					"numoutlets" : 0,
					"grad1" : [ 1.0, 1.0, 1.0, 1.0 ],
					"grad2" : [ 0.858824, 0.858824, 0.858824, 1.0 ],
					"background" : 1
				}

			}
, 			{
				"box" : 				{
					"maxclass" : "panel",
					"rounded" : 0,
					"patching_rect" : [ 60.0, 470.0, 126.0, 25.0 ],
					"numinlets" : 1,
					"id" : "obj-159",
					"mode" : 1,
					"numoutlets" : 0,
					"grad1" : [ 1.0, 1.0, 1.0, 1.0 ],
					"grad2" : [ 0.670588, 0.670588, 0.670588, 1.0 ],
					"background" : 1
				}

			}
, 			{
				"box" : 				{
					"maxclass" : "panel",
					"patching_rect" : [ 181.0, 495.0, 530.0, 32.0 ],
					"numinlets" : 1,
					"id" : "obj-160",
					"bgcolor" : [ 0.858824, 0.858824, 0.858824, 1.0 ],
					"numoutlets" : 0,
					"grad2" : [ 1.0, 1.0, 1.0, 1.0 ],
					"background" : 1
				}

			}
, 			{
				"box" : 				{
					"maxclass" : "panel",
					"patching_rect" : [ 181.0, 470.0, 530.0, 40.0 ],
					"numinlets" : 1,
					"id" : "obj-161",
					"numoutlets" : 0,
					"background" : 1
				}

			}
, 			{
				"box" : 				{
					"maxclass" : "panel",
					"rounded" : 25,
					"patching_rect" : [ 41.0, 435.0, 156.0, 32.0 ],
					"numinlets" : 1,
					"id" : "obj-140",
					"mode" : 1,
					"numoutlets" : 0,
					"grad1" : [ 1.0, 1.0, 1.0, 1.0 ],
					"grad2" : [ 0.858824, 0.858824, 0.858824, 1.0 ],
					"background" : 1
				}

			}
, 			{
				"box" : 				{
					"maxclass" : "panel",
					"rounded" : 0,
					"patching_rect" : [ 60.0, 410.0, 126.0, 25.0 ],
					"numinlets" : 1,
					"id" : "obj-141",
					"mode" : 1,
					"numoutlets" : 0,
					"grad1" : [ 1.0, 1.0, 1.0, 1.0 ],
					"grad2" : [ 0.670588, 0.670588, 0.670588, 1.0 ],
					"background" : 1
				}

			}
, 			{
				"box" : 				{
					"maxclass" : "panel",
					"patching_rect" : [ 181.0, 435.0, 530.0, 32.0 ],
					"numinlets" : 1,
					"id" : "obj-142",
					"bgcolor" : [ 0.858824, 0.858824, 0.858824, 1.0 ],
					"numoutlets" : 0,
					"grad2" : [ 1.0, 1.0, 1.0, 1.0 ],
					"background" : 1
				}

			}
, 			{
				"box" : 				{
					"maxclass" : "panel",
					"patching_rect" : [ 181.0, 410.0, 530.0, 40.0 ],
					"numinlets" : 1,
					"id" : "obj-143",
					"numoutlets" : 0,
					"background" : 1
				}

			}
, 			{
				"box" : 				{
					"maxclass" : "panel",
					"rounded" : 25,
					"patching_rect" : [ 41.0, 375.0, 156.0, 32.0 ],
					"numinlets" : 1,
					"id" : "obj-122",
					"mode" : 1,
					"numoutlets" : 0,
					"grad1" : [ 1.0, 1.0, 1.0, 1.0 ],
					"grad2" : [ 0.858824, 0.858824, 0.858824, 1.0 ],
					"background" : 1
				}

			}
, 			{
				"box" : 				{
					"maxclass" : "panel",
					"rounded" : 0,
					"patching_rect" : [ 60.0, 350.0, 126.0, 25.0 ],
					"numinlets" : 1,
					"id" : "obj-123",
					"mode" : 1,
					"numoutlets" : 0,
					"grad1" : [ 1.0, 1.0, 1.0, 1.0 ],
					"grad2" : [ 0.670588, 0.670588, 0.670588, 1.0 ],
					"background" : 1
				}

			}
, 			{
				"box" : 				{
					"maxclass" : "panel",
					"patching_rect" : [ 181.0, 375.0, 530.0, 32.0 ],
					"numinlets" : 1,
					"id" : "obj-124",
					"bgcolor" : [ 0.858824, 0.858824, 0.858824, 1.0 ],
					"numoutlets" : 0,
					"grad2" : [ 1.0, 1.0, 1.0, 1.0 ],
					"background" : 1
				}

			}
, 			{
				"box" : 				{
					"maxclass" : "panel",
					"patching_rect" : [ 181.0, 350.0, 530.0, 40.0 ],
					"numinlets" : 1,
					"id" : "obj-125",
					"numoutlets" : 0,
					"background" : 1
				}

			}
, 			{
				"box" : 				{
					"maxclass" : "panel",
					"patching_rect" : [ 181.0, 315.0, 530.0, 32.0 ],
					"numinlets" : 1,
					"id" : "obj-106",
					"bgcolor" : [ 0.858824, 0.858824, 0.858824, 1.0 ],
					"numoutlets" : 0,
					"grad2" : [ 1.0, 1.0, 1.0, 1.0 ],
					"background" : 1
				}

			}
, 			{
				"box" : 				{
					"maxclass" : "panel",
					"patching_rect" : [ 181.0, 290.0, 530.0, 40.0 ],
					"numinlets" : 1,
					"id" : "obj-107",
					"numoutlets" : 0,
					"background" : 1
				}

			}
 ],
		"lines" : [ 			{
				"patchline" : 				{
					"source" : [ "obj-38", 0 ],
					"destination" : [ "obj-211", 0 ],
					"hidden" : 0,
					"midpoints" : [ 29.5, 648.0, 61.5, 648.0 ]
				}

			}
, 			{
				"patchline" : 				{
					"source" : [ "obj-211", 0 ],
					"destination" : [ "obj-210", 0 ],
					"hidden" : 1,
					"midpoints" : [  ]
				}

			}
, 			{
				"patchline" : 				{
					"source" : [ "obj-38", 0 ],
					"destination" : [ "obj-193", 0 ],
					"hidden" : 0,
					"midpoints" : [ 29.5, 588.0, 61.5, 588.0 ]
				}

			}
, 			{
				"patchline" : 				{
					"source" : [ "obj-193", 0 ],
					"destination" : [ "obj-192", 0 ],
					"hidden" : 1,
					"midpoints" : [  ]
				}

			}
, 			{
				"patchline" : 				{
					"source" : [ "obj-38", 0 ],
					"destination" : [ "obj-175", 0 ],
					"hidden" : 0,
					"midpoints" : [ 29.5, 528.0, 61.5, 528.0 ]
				}

			}
, 			{
				"patchline" : 				{
					"source" : [ "obj-175", 0 ],
					"destination" : [ "obj-174", 0 ],
					"hidden" : 1,
					"midpoints" : [  ]
				}

			}
, 			{
				"patchline" : 				{
					"source" : [ "obj-38", 0 ],
					"destination" : [ "obj-157", 0 ],
					"hidden" : 0,
					"midpoints" : [ 29.5, 468.0, 61.5, 468.0 ]
				}

			}
, 			{
				"patchline" : 				{
					"source" : [ "obj-157", 0 ],
					"destination" : [ "obj-156", 0 ],
					"hidden" : 1,
					"midpoints" : [  ]
				}

			}
, 			{
				"patchline" : 				{
					"source" : [ "obj-38", 0 ],
					"destination" : [ "obj-139", 0 ],
					"hidden" : 0,
					"midpoints" : [ 29.5, 408.0, 61.5, 408.0 ]
				}

			}
, 			{
				"patchline" : 				{
					"source" : [ "obj-139", 0 ],
					"destination" : [ "obj-138", 0 ],
					"hidden" : 1,
					"midpoints" : [  ]
				}

			}
, 			{
				"patchline" : 				{
					"source" : [ "obj-38", 0 ],
					"destination" : [ "obj-121", 0 ],
					"hidden" : 0,
					"midpoints" : [ 29.5, 348.0, 61.5, 348.0 ]
				}

			}
, 			{
				"patchline" : 				{
					"source" : [ "obj-121", 0 ],
					"destination" : [ "obj-120", 0 ],
					"hidden" : 1,
					"midpoints" : [  ]
				}

			}
, 			{
				"patchline" : 				{
					"source" : [ "obj-38", 0 ],
					"destination" : [ "obj-103", 0 ],
					"hidden" : 0,
					"midpoints" : [ 29.5, 288.0, 61.5, 288.0 ]
				}

			}
, 			{
				"patchline" : 				{
					"source" : [ "obj-103", 0 ],
					"destination" : [ "obj-102", 0 ],
					"hidden" : 1,
					"midpoints" : [  ]
				}

			}
, 			{
				"patchline" : 				{
					"source" : [ "obj-38", 0 ],
					"destination" : [ "obj-85", 0 ],
					"hidden" : 0,
					"midpoints" : [ 29.5, 228.0, 61.5, 228.0 ]
				}

			}
, 			{
				"patchline" : 				{
					"source" : [ "obj-85", 0 ],
					"destination" : [ "obj-84", 0 ],
					"hidden" : 1,
					"midpoints" : [  ]
				}

			}
, 			{
				"patchline" : 				{
					"source" : [ "obj-38", 0 ],
					"destination" : [ "obj-67", 0 ],
					"hidden" : 0,
					"midpoints" : [ 29.5, 168.0, 61.5, 168.0 ]
				}

			}
, 			{
				"patchline" : 				{
					"source" : [ "obj-67", 0 ],
					"destination" : [ "obj-66", 0 ],
					"hidden" : 1,
					"midpoints" : [  ]
				}

			}
, 			{
				"patchline" : 				{
					"source" : [ "obj-38", 0 ],
					"destination" : [ "obj-2", 0 ],
					"hidden" : 0,
					"midpoints" : [ 29.5, 99.0, 61.5, 99.0 ]
				}

			}
, 			{
				"patchline" : 				{
					"source" : [ "obj-2", 0 ],
					"destination" : [ "obj-440", 0 ],
					"hidden" : 1,
					"midpoints" : [  ]
				}

			}
, 			{
				"patchline" : 				{
					"source" : [ "obj-440", 0 ],
					"destination" : [ "obj-412", 0 ],
					"hidden" : 1,
					"midpoints" : [  ]
				}

			}
, 			{
				"patchline" : 				{
					"source" : [ "obj-424", 0 ],
					"destination" : [ "obj-421", 0 ],
					"hidden" : 1,
					"midpoints" : [  ]
				}

			}
, 			{
				"patchline" : 				{
					"source" : [ "obj-1095", 0 ],
					"destination" : [ "obj-424", 0 ],
					"hidden" : 1,
					"midpoints" : [  ]
				}

			}
, 			{
				"patchline" : 				{
					"source" : [ "obj-1095", 1 ],
					"destination" : [ "obj-423", 0 ],
					"hidden" : 1,
					"midpoints" : [  ]
				}

			}
, 			{
				"patchline" : 				{
					"source" : [ "obj-1095", 1 ],
					"destination" : [ "obj-422", 0 ],
					"hidden" : 1,
					"midpoints" : [  ]
				}

			}
, 			{
				"patchline" : 				{
					"source" : [ "obj-435", 0 ],
					"destination" : [ "obj-440", 0 ],
					"hidden" : 1,
					"midpoints" : [  ]
				}

			}
, 			{
				"patchline" : 				{
					"source" : [ "obj-423", 0 ],
					"destination" : [ "obj-421", 1 ],
					"hidden" : 1,
					"midpoints" : [  ]
				}

			}
, 			{
				"patchline" : 				{
					"source" : [ "obj-422", 0 ],
					"destination" : [ "obj-421", 2 ],
					"hidden" : 1,
					"midpoints" : [  ]
				}

			}
, 			{
				"patchline" : 				{
					"source" : [ "obj-412", 0 ],
					"destination" : [ "obj-1095", 0 ],
					"hidden" : 1,
					"midpoints" : [  ]
				}

			}
, 			{
				"patchline" : 				{
					"source" : [ "obj-66", 0 ],
					"destination" : [ "obj-60", 0 ],
					"hidden" : 1,
					"midpoints" : [  ]
				}

			}
, 			{
				"patchline" : 				{
					"source" : [ "obj-60", 0 ],
					"destination" : [ "obj-54", 0 ],
					"hidden" : 1,
					"midpoints" : [  ]
				}

			}
, 			{
				"patchline" : 				{
					"source" : [ "obj-62", 0 ],
					"destination" : [ "obj-61", 2 ],
					"hidden" : 1,
					"midpoints" : [  ]
				}

			}
, 			{
				"patchline" : 				{
					"source" : [ "obj-63", 0 ],
					"destination" : [ "obj-61", 1 ],
					"hidden" : 1,
					"midpoints" : [  ]
				}

			}
, 			{
				"patchline" : 				{
					"source" : [ "obj-65", 0 ],
					"destination" : [ "obj-66", 0 ],
					"hidden" : 1,
					"midpoints" : [  ]
				}

			}
, 			{
				"patchline" : 				{
					"source" : [ "obj-54", 1 ],
					"destination" : [ "obj-62", 0 ],
					"hidden" : 1,
					"midpoints" : [  ]
				}

			}
, 			{
				"patchline" : 				{
					"source" : [ "obj-54", 1 ],
					"destination" : [ "obj-63", 0 ],
					"hidden" : 1,
					"midpoints" : [  ]
				}

			}
, 			{
				"patchline" : 				{
					"source" : [ "obj-54", 0 ],
					"destination" : [ "obj-64", 0 ],
					"hidden" : 1,
					"midpoints" : [  ]
				}

			}
, 			{
				"patchline" : 				{
					"source" : [ "obj-64", 0 ],
					"destination" : [ "obj-61", 0 ],
					"hidden" : 1,
					"midpoints" : [  ]
				}

			}
, 			{
				"patchline" : 				{
					"source" : [ "obj-82", 0 ],
					"destination" : [ "obj-79", 0 ],
					"hidden" : 1,
					"midpoints" : [  ]
				}

			}
, 			{
				"patchline" : 				{
					"source" : [ "obj-72", 0 ],
					"destination" : [ "obj-82", 0 ],
					"hidden" : 1,
					"midpoints" : [  ]
				}

			}
, 			{
				"patchline" : 				{
					"source" : [ "obj-72", 1 ],
					"destination" : [ "obj-81", 0 ],
					"hidden" : 1,
					"midpoints" : [  ]
				}

			}
, 			{
				"patchline" : 				{
					"source" : [ "obj-72", 1 ],
					"destination" : [ "obj-80", 0 ],
					"hidden" : 1,
					"midpoints" : [  ]
				}

			}
, 			{
				"patchline" : 				{
					"source" : [ "obj-83", 0 ],
					"destination" : [ "obj-84", 0 ],
					"hidden" : 1,
					"midpoints" : [  ]
				}

			}
, 			{
				"patchline" : 				{
					"source" : [ "obj-81", 0 ],
					"destination" : [ "obj-79", 1 ],
					"hidden" : 1,
					"midpoints" : [  ]
				}

			}
, 			{
				"patchline" : 				{
					"source" : [ "obj-80", 0 ],
					"destination" : [ "obj-79", 2 ],
					"hidden" : 1,
					"midpoints" : [  ]
				}

			}
, 			{
				"patchline" : 				{
					"source" : [ "obj-78", 0 ],
					"destination" : [ "obj-72", 0 ],
					"hidden" : 1,
					"midpoints" : [  ]
				}

			}
, 			{
				"patchline" : 				{
					"source" : [ "obj-84", 0 ],
					"destination" : [ "obj-78", 0 ],
					"hidden" : 1,
					"midpoints" : [  ]
				}

			}
, 			{
				"patchline" : 				{
					"source" : [ "obj-102", 0 ],
					"destination" : [ "obj-96", 0 ],
					"hidden" : 1,
					"midpoints" : [  ]
				}

			}
, 			{
				"patchline" : 				{
					"source" : [ "obj-96", 0 ],
					"destination" : [ "obj-90", 0 ],
					"hidden" : 1,
					"midpoints" : [  ]
				}

			}
, 			{
				"patchline" : 				{
					"source" : [ "obj-98", 0 ],
					"destination" : [ "obj-97", 2 ],
					"hidden" : 1,
					"midpoints" : [  ]
				}

			}
, 			{
				"patchline" : 				{
					"source" : [ "obj-99", 0 ],
					"destination" : [ "obj-97", 1 ],
					"hidden" : 1,
					"midpoints" : [  ]
				}

			}
, 			{
				"patchline" : 				{
					"source" : [ "obj-101", 0 ],
					"destination" : [ "obj-102", 0 ],
					"hidden" : 1,
					"midpoints" : [  ]
				}

			}
, 			{
				"patchline" : 				{
					"source" : [ "obj-90", 1 ],
					"destination" : [ "obj-98", 0 ],
					"hidden" : 1,
					"midpoints" : [  ]
				}

			}
, 			{
				"patchline" : 				{
					"source" : [ "obj-90", 1 ],
					"destination" : [ "obj-99", 0 ],
					"hidden" : 1,
					"midpoints" : [  ]
				}

			}
, 			{
				"patchline" : 				{
					"source" : [ "obj-90", 0 ],
					"destination" : [ "obj-100", 0 ],
					"hidden" : 1,
					"midpoints" : [  ]
				}

			}
, 			{
				"patchline" : 				{
					"source" : [ "obj-100", 0 ],
					"destination" : [ "obj-97", 0 ],
					"hidden" : 1,
					"midpoints" : [  ]
				}

			}
, 			{
				"patchline" : 				{
					"source" : [ "obj-118", 0 ],
					"destination" : [ "obj-115", 0 ],
					"hidden" : 1,
					"midpoints" : [  ]
				}

			}
, 			{
				"patchline" : 				{
					"source" : [ "obj-108", 0 ],
					"destination" : [ "obj-118", 0 ],
					"hidden" : 1,
					"midpoints" : [  ]
				}

			}
, 			{
				"patchline" : 				{
					"source" : [ "obj-108", 1 ],
					"destination" : [ "obj-117", 0 ],
					"hidden" : 1,
					"midpoints" : [  ]
				}

			}
, 			{
				"patchline" : 				{
					"source" : [ "obj-108", 1 ],
					"destination" : [ "obj-116", 0 ],
					"hidden" : 1,
					"midpoints" : [  ]
				}

			}
, 			{
				"patchline" : 				{
					"source" : [ "obj-119", 0 ],
					"destination" : [ "obj-120", 0 ],
					"hidden" : 1,
					"midpoints" : [  ]
				}

			}
, 			{
				"patchline" : 				{
					"source" : [ "obj-117", 0 ],
					"destination" : [ "obj-115", 1 ],
					"hidden" : 1,
					"midpoints" : [  ]
				}

			}
, 			{
				"patchline" : 				{
					"source" : [ "obj-116", 0 ],
					"destination" : [ "obj-115", 2 ],
					"hidden" : 1,
					"midpoints" : [  ]
				}

			}
, 			{
				"patchline" : 				{
					"source" : [ "obj-114", 0 ],
					"destination" : [ "obj-108", 0 ],
					"hidden" : 1,
					"midpoints" : [  ]
				}

			}
, 			{
				"patchline" : 				{
					"source" : [ "obj-120", 0 ],
					"destination" : [ "obj-114", 0 ],
					"hidden" : 1,
					"midpoints" : [  ]
				}

			}
, 			{
				"patchline" : 				{
					"source" : [ "obj-138", 0 ],
					"destination" : [ "obj-132", 0 ],
					"hidden" : 1,
					"midpoints" : [  ]
				}

			}
, 			{
				"patchline" : 				{
					"source" : [ "obj-132", 0 ],
					"destination" : [ "obj-126", 0 ],
					"hidden" : 1,
					"midpoints" : [  ]
				}

			}
, 			{
				"patchline" : 				{
					"source" : [ "obj-134", 0 ],
					"destination" : [ "obj-133", 2 ],
					"hidden" : 1,
					"midpoints" : [  ]
				}

			}
, 			{
				"patchline" : 				{
					"source" : [ "obj-135", 0 ],
					"destination" : [ "obj-133", 1 ],
					"hidden" : 1,
					"midpoints" : [  ]
				}

			}
, 			{
				"patchline" : 				{
					"source" : [ "obj-137", 0 ],
					"destination" : [ "obj-138", 0 ],
					"hidden" : 1,
					"midpoints" : [  ]
				}

			}
, 			{
				"patchline" : 				{
					"source" : [ "obj-126", 1 ],
					"destination" : [ "obj-134", 0 ],
					"hidden" : 1,
					"midpoints" : [  ]
				}

			}
, 			{
				"patchline" : 				{
					"source" : [ "obj-126", 1 ],
					"destination" : [ "obj-135", 0 ],
					"hidden" : 1,
					"midpoints" : [  ]
				}

			}
, 			{
				"patchline" : 				{
					"source" : [ "obj-126", 0 ],
					"destination" : [ "obj-136", 0 ],
					"hidden" : 1,
					"midpoints" : [  ]
				}

			}
, 			{
				"patchline" : 				{
					"source" : [ "obj-136", 0 ],
					"destination" : [ "obj-133", 0 ],
					"hidden" : 1,
					"midpoints" : [  ]
				}

			}
, 			{
				"patchline" : 				{
					"source" : [ "obj-154", 0 ],
					"destination" : [ "obj-151", 0 ],
					"hidden" : 1,
					"midpoints" : [  ]
				}

			}
, 			{
				"patchline" : 				{
					"source" : [ "obj-144", 0 ],
					"destination" : [ "obj-154", 0 ],
					"hidden" : 1,
					"midpoints" : [  ]
				}

			}
, 			{
				"patchline" : 				{
					"source" : [ "obj-144", 1 ],
					"destination" : [ "obj-153", 0 ],
					"hidden" : 1,
					"midpoints" : [  ]
				}

			}
, 			{
				"patchline" : 				{
					"source" : [ "obj-144", 1 ],
					"destination" : [ "obj-152", 0 ],
					"hidden" : 1,
					"midpoints" : [  ]
				}

			}
, 			{
				"patchline" : 				{
					"source" : [ "obj-155", 0 ],
					"destination" : [ "obj-156", 0 ],
					"hidden" : 1,
					"midpoints" : [  ]
				}

			}
, 			{
				"patchline" : 				{
					"source" : [ "obj-153", 0 ],
					"destination" : [ "obj-151", 1 ],
					"hidden" : 1,
					"midpoints" : [  ]
				}

			}
, 			{
				"patchline" : 				{
					"source" : [ "obj-152", 0 ],
					"destination" : [ "obj-151", 2 ],
					"hidden" : 1,
					"midpoints" : [  ]
				}

			}
, 			{
				"patchline" : 				{
					"source" : [ "obj-150", 0 ],
					"destination" : [ "obj-144", 0 ],
					"hidden" : 1,
					"midpoints" : [  ]
				}

			}
, 			{
				"patchline" : 				{
					"source" : [ "obj-156", 0 ],
					"destination" : [ "obj-150", 0 ],
					"hidden" : 1,
					"midpoints" : [  ]
				}

			}
, 			{
				"patchline" : 				{
					"source" : [ "obj-174", 0 ],
					"destination" : [ "obj-168", 0 ],
					"hidden" : 1,
					"midpoints" : [  ]
				}

			}
, 			{
				"patchline" : 				{
					"source" : [ "obj-168", 0 ],
					"destination" : [ "obj-162", 0 ],
					"hidden" : 1,
					"midpoints" : [  ]
				}

			}
, 			{
				"patchline" : 				{
					"source" : [ "obj-170", 0 ],
					"destination" : [ "obj-169", 2 ],
					"hidden" : 1,
					"midpoints" : [  ]
				}

			}
, 			{
				"patchline" : 				{
					"source" : [ "obj-171", 0 ],
					"destination" : [ "obj-169", 1 ],
					"hidden" : 1,
					"midpoints" : [  ]
				}

			}
, 			{
				"patchline" : 				{
					"source" : [ "obj-173", 0 ],
					"destination" : [ "obj-174", 0 ],
					"hidden" : 1,
					"midpoints" : [  ]
				}

			}
, 			{
				"patchline" : 				{
					"source" : [ "obj-162", 1 ],
					"destination" : [ "obj-170", 0 ],
					"hidden" : 1,
					"midpoints" : [  ]
				}

			}
, 			{
				"patchline" : 				{
					"source" : [ "obj-162", 1 ],
					"destination" : [ "obj-171", 0 ],
					"hidden" : 1,
					"midpoints" : [  ]
				}

			}
, 			{
				"patchline" : 				{
					"source" : [ "obj-162", 0 ],
					"destination" : [ "obj-172", 0 ],
					"hidden" : 1,
					"midpoints" : [  ]
				}

			}
, 			{
				"patchline" : 				{
					"source" : [ "obj-172", 0 ],
					"destination" : [ "obj-169", 0 ],
					"hidden" : 1,
					"midpoints" : [  ]
				}

			}
, 			{
				"patchline" : 				{
					"source" : [ "obj-190", 0 ],
					"destination" : [ "obj-187", 0 ],
					"hidden" : 1,
					"midpoints" : [  ]
				}

			}
, 			{
				"patchline" : 				{
					"source" : [ "obj-180", 0 ],
					"destination" : [ "obj-190", 0 ],
					"hidden" : 1,
					"midpoints" : [  ]
				}

			}
, 			{
				"patchline" : 				{
					"source" : [ "obj-180", 1 ],
					"destination" : [ "obj-189", 0 ],
					"hidden" : 1,
					"midpoints" : [  ]
				}

			}
, 			{
				"patchline" : 				{
					"source" : [ "obj-180", 1 ],
					"destination" : [ "obj-188", 0 ],
					"hidden" : 1,
					"midpoints" : [  ]
				}

			}
, 			{
				"patchline" : 				{
					"source" : [ "obj-191", 0 ],
					"destination" : [ "obj-192", 0 ],
					"hidden" : 1,
					"midpoints" : [  ]
				}

			}
, 			{
				"patchline" : 				{
					"source" : [ "obj-189", 0 ],
					"destination" : [ "obj-187", 1 ],
					"hidden" : 1,
					"midpoints" : [  ]
				}

			}
, 			{
				"patchline" : 				{
					"source" : [ "obj-188", 0 ],
					"destination" : [ "obj-187", 2 ],
					"hidden" : 1,
					"midpoints" : [  ]
				}

			}
, 			{
				"patchline" : 				{
					"source" : [ "obj-186", 0 ],
					"destination" : [ "obj-180", 0 ],
					"hidden" : 1,
					"midpoints" : [  ]
				}

			}
, 			{
				"patchline" : 				{
					"source" : [ "obj-192", 0 ],
					"destination" : [ "obj-186", 0 ],
					"hidden" : 1,
					"midpoints" : [  ]
				}

			}
, 			{
				"patchline" : 				{
					"source" : [ "obj-210", 0 ],
					"destination" : [ "obj-204", 0 ],
					"hidden" : 1,
					"midpoints" : [  ]
				}

			}
, 			{
				"patchline" : 				{
					"source" : [ "obj-204", 0 ],
					"destination" : [ "obj-198", 0 ],
					"hidden" : 1,
					"midpoints" : [  ]
				}

			}
, 			{
				"patchline" : 				{
					"source" : [ "obj-206", 0 ],
					"destination" : [ "obj-205", 2 ],
					"hidden" : 1,
					"midpoints" : [  ]
				}

			}
, 			{
				"patchline" : 				{
					"source" : [ "obj-207", 0 ],
					"destination" : [ "obj-205", 1 ],
					"hidden" : 1,
					"midpoints" : [  ]
				}

			}
, 			{
				"patchline" : 				{
					"source" : [ "obj-209", 0 ],
					"destination" : [ "obj-210", 0 ],
					"hidden" : 1,
					"midpoints" : [  ]
				}

			}
, 			{
				"patchline" : 				{
					"source" : [ "obj-198", 1 ],
					"destination" : [ "obj-206", 0 ],
					"hidden" : 1,
					"midpoints" : [  ]
				}

			}
, 			{
				"patchline" : 				{
					"source" : [ "obj-198", 1 ],
					"destination" : [ "obj-207", 0 ],
					"hidden" : 1,
					"midpoints" : [  ]
				}

			}
, 			{
				"patchline" : 				{
					"source" : [ "obj-198", 0 ],
					"destination" : [ "obj-208", 0 ],
					"hidden" : 1,
					"midpoints" : [  ]
				}

			}
, 			{
				"patchline" : 				{
					"source" : [ "obj-208", 0 ],
					"destination" : [ "obj-205", 0 ],
					"hidden" : 1,
					"midpoints" : [  ]
				}

			}
, 			{
				"patchline" : 				{
					"source" : [ "obj-310", 0 ],
					"destination" : [ "obj-311", 0 ],
					"hidden" : 1,
					"midpoints" : [  ]
				}

			}
, 			{
				"patchline" : 				{
					"source" : [ "obj-316", 0 ],
					"destination" : [ "obj-312", 4 ],
					"hidden" : 1,
					"color" : [ 0.858824, 0.858824, 0.858824, 1.0 ],
					"midpoints" : [  ]
				}

			}
, 			{
				"patchline" : 				{
					"source" : [ "obj-315", 0 ],
					"destination" : [ "obj-312", 3 ],
					"hidden" : 1,
					"color" : [ 0.858824, 0.858824, 0.858824, 1.0 ],
					"midpoints" : [  ]
				}

			}
, 			{
				"patchline" : 				{
					"source" : [ "obj-318", 0 ],
					"destination" : [ "obj-312", 2 ],
					"hidden" : 1,
					"color" : [ 0.858824, 0.858824, 0.858824, 1.0 ],
					"midpoints" : [  ]
				}

			}
, 			{
				"patchline" : 				{
					"source" : [ "obj-320", 0 ],
					"destination" : [ "obj-312", 1 ],
					"hidden" : 1,
					"color" : [ 0.858824, 0.858824, 0.858824, 1.0 ],
					"midpoints" : [  ]
				}

			}
, 			{
				"patchline" : 				{
					"source" : [ "obj-317", 0 ],
					"destination" : [ "obj-312", 0 ],
					"hidden" : 1,
					"color" : [ 0.858824, 0.858824, 0.858824, 1.0 ],
					"midpoints" : [  ]
				}

			}
, 			{
				"patchline" : 				{
					"source" : [ "obj-312", 0 ],
					"destination" : [ "obj-216", 0 ],
					"hidden" : 1,
					"color" : [ 0.858824, 0.858824, 0.858824, 1.0 ],
					"midpoints" : [  ]
				}

			}
, 			{
				"patchline" : 				{
					"source" : [ "obj-311", 1 ],
					"destination" : [ "obj-205", 0 ],
					"hidden" : 1,
					"midpoints" : [  ]
				}

			}
, 			{
				"patchline" : 				{
					"source" : [ "obj-311", 1 ],
					"destination" : [ "obj-151", 0 ],
					"hidden" : 1,
					"midpoints" : [  ]
				}

			}
, 			{
				"patchline" : 				{
					"source" : [ "obj-311", 1 ],
					"destination" : [ "obj-133", 0 ],
					"hidden" : 1,
					"midpoints" : [  ]
				}

			}
, 			{
				"patchline" : 				{
					"source" : [ "obj-311", 1 ],
					"destination" : [ "obj-169", 0 ],
					"hidden" : 1,
					"midpoints" : [  ]
				}

			}
, 			{
				"patchline" : 				{
					"source" : [ "obj-311", 1 ],
					"destination" : [ "obj-115", 0 ],
					"hidden" : 1,
					"midpoints" : [  ]
				}

			}
, 			{
				"patchline" : 				{
					"source" : [ "obj-311", 1 ],
					"destination" : [ "obj-187", 0 ],
					"hidden" : 1,
					"midpoints" : [  ]
				}

			}
, 			{
				"patchline" : 				{
					"source" : [ "obj-311", 1 ],
					"destination" : [ "obj-61", 0 ],
					"hidden" : 1,
					"midpoints" : [  ]
				}

			}
, 			{
				"patchline" : 				{
					"source" : [ "obj-311", 1 ],
					"destination" : [ "obj-79", 0 ],
					"hidden" : 1,
					"midpoints" : [  ]
				}

			}
, 			{
				"patchline" : 				{
					"source" : [ "obj-311", 1 ],
					"destination" : [ "obj-97", 0 ],
					"hidden" : 1,
					"midpoints" : [  ]
				}

			}
, 			{
				"patchline" : 				{
					"source" : [ "obj-311", 1 ],
					"destination" : [ "obj-421", 0 ],
					"hidden" : 1,
					"midpoints" : [  ]
				}

			}
 ],
		"parameters" : 		{
			"obj-173" : [ "live.button[9]", "live.button", 0 ],
			"obj-119" : [ "live.button[4]", "live.button", 0 ],
			"obj-155" : [ "live.button[8]", "live.button", 0 ],
			"obj-435" : [ "live.button[7]", "live.button", 0 ],
			"obj-101" : [ "live.button[3]", "live.button", 0 ],
			"obj-83" : [ "live.button[2]", "live.button", 0 ],
			"obj-209" : [ "live.button[11]", "live.button", 0 ],
			"obj-65" : [ "live.button[1]", "live.button", 0 ],
			"obj-191" : [ "live.button[10]", "live.button", 0 ],
			"obj-137" : [ "live.button[5]", "live.button", 0 ]
		}

	}

}
