{
	"patcher" : 	{
		"fileversion" : 1,
		"rect" : [ 40.0, 44.0, 775.0, 244.0 ],
		"bglocked" : 0,
		"defrect" : [ 40.0, 44.0, 775.0, 244.0 ],
		"openrect" : [ 0.0, 0.0, 0.0, 0.0 ],
		"openinpresentation" : 0,
		"default_fontsize" : 12.0,
		"default_fontface" : 0,
		"default_fontname" : "Arial",
		"gridonopen" : 0,
		"gridsize" : [ 10.0, 10.0 ],
		"gridsnaponopen" : 0,
		"toolbarvisible" : 1,
		"boxanimatetime" : 200,
		"imprint" : 0,
		"enablehscroll" : 1,
		"enablevscroll" : 1,
		"devicewidth" : 0.0,
		"boxes" : [ 			{
				"box" : 				{
					"maxclass" : "flonum",
					"maximum" : 1.0,
					"presentation_rect" : [ 467.0, 320.0, 0.0, 0.0 ],
					"patching_rect" : [ 372.0, 160.0, 96.0, 20.0 ],
					"numinlets" : 1,
					"id" : "obj-12",
					"fontname" : "Arial",
					"numoutlets" : 2,
					"minimum" : -1.0,
					"outlettype" : [ "float", "bang" ],
					"fontsize" : 12.0
				}

			}
, 			{
				"box" : 				{
					"maxclass" : "flonum",
					"maximum" : 1.0,
					"patching_rect" : [ 372.0, 140.0, 96.0, 20.0 ],
					"numinlets" : 1,
					"id" : "obj-11",
					"fontname" : "Arial",
					"numoutlets" : 2,
					"minimum" : -1.0,
					"outlettype" : [ "float", "bang" ],
					"fontsize" : 12.0
				}

			}
, 			{
				"box" : 				{
					"maxclass" : "preset",
					"patching_rect" : [ 480.0, 60.0, 125.0, 28.0 ],
					"numinlets" : 1,
					"id" : "obj-10",
					"numoutlets" : 4,
					"outlettype" : [ "preset", "int", "preset", "int" ],
					"preset_data" : [ 						{
							"number" : 1,
							"data" : [ 5, "obj-432", "number", "int", 0, 5, "obj-431", "number", "int", 0, 5, "obj-430", "number", "int", 1, 5, "obj-428", "number", "int", 0, 5, "obj-427", "number", "int", 0, 5, "obj-426", "number", "int", 1, 5, "obj-424", "number", "int", 0, 5, "obj-423", "number", "int", 0, 5, "obj-422", "number", "int", 1, 5, "obj-411", "toggle", "int", 0, 5, "obj-410", "toggle", "int", 0, 5, "obj-7", "flonum", "float", -1.0, 5, "obj-320", "number", "int", 1, 5, "obj-315", "number", "int", 1, 5, "obj-311", "umenu", "int", 1, 5, "obj-11", "flonum", "float", -1.0, 5, "obj-12", "flonum", "float", -1.0 ]
						}
, 						{
							"number" : 2,
							"data" : [ 5, "obj-432", "number", "int", 0, 5, "obj-431", "number", "int", 92, 5, "obj-430", "number", "int", 1, 5, "obj-428", "number", "int", 0, 5, "obj-427", "number", "int", 93, 5, "obj-426", "number", "int", 1, 5, "obj-424", "number", "int", 0, 5, "obj-423", "number", "int", 94, 5, "obj-422", "number", "int", 1, 5, "obj-411", "toggle", "int", 0, 5, "obj-410", "toggle", "int", 0, 5, "obj-7", "flonum", "float", -1.0, 5, "obj-320", "number", "int", 2, 5, "obj-315", "number", "int", 2, 5, "obj-311", "umenu", "int", 1, 5, "obj-11", "flonum", "float", -1.0, 5, "obj-12", "flonum", "float", -1.0 ]
						}
, 						{
							"number" : 3,
							"data" : [ 5, "obj-432", "number", "int", 0, 5, "obj-431", "number", "int", 31, 5, "obj-430", "number", "int", 1, 5, "obj-428", "number", "int", 0, 5, "obj-427", "number", "int", 31, 5, "obj-426", "number", "int", 2, 5, "obj-424", "number", "int", 0, 5, "obj-423", "number", "int", 31, 5, "obj-422", "number", "int", 3, 5, "obj-411", "toggle", "int", 0, 5, "obj-410", "toggle", "int", 0, 5, "obj-7", "flonum", "float", -1.0, 5, "obj-320", "number", "int", 3, 5, "obj-315", "number", "int", 2, 5, "obj-311", "umenu", "int", 1, 5, "obj-11", "flonum", "float", -1.0, 5, "obj-12", "flonum", "float", -1.0 ]
						}
 ]
				}

			}
, 			{
				"box" : 				{
					"maxclass" : "comment",
					"text" : "MIDI out",
					"patching_rect" : [ 610.0, 50.0, 64.0, 20.0 ],
					"numinlets" : 1,
					"id" : "obj-309",
					"fontname" : "Arial",
					"numoutlets" : 0,
					"fontsize" : 12.0
				}

			}
, 			{
				"box" : 				{
					"maxclass" : "newobj",
					"text" : "midiinfo",
					"hidden" : 1,
					"patching_rect" : [ 690.0, 40.0, 50.0, 20.0 ],
					"numinlets" : 2,
					"id" : "obj-310",
					"fontname" : "Arial",
					"numoutlets" : 1,
					"outlettype" : [ "" ],
					"fontsize" : 11.595187
				}

			}
, 			{
				"box" : 				{
					"maxclass" : "umenu",
					"items" : [ "IAC Driver Bus 1", ",", "from MaxMSP 1", ",", "from MaxMSP 2", ",", "to MaxMSP 1", ",", "to MaxMSP 2" ],
					"patching_rect" : [ 610.0, 70.0, 115.0, 20.0 ],
					"numinlets" : 1,
					"id" : "obj-311",
					"fontname" : "Arial",
					"numoutlets" : 3,
					"types" : [  ],
					"outlettype" : [ "int", "", "" ],
					"fontsize" : 11.595187
				}

			}
, 			{
				"box" : 				{
					"maxclass" : "comment",
					"text" : "Accelerometer",
					"patching_rect" : [ 160.0, 30.0, 277.0, 48.0 ],
					"numinlets" : 1,
					"id" : "obj-1091",
					"fontname" : "Lucida Grande",
					"numoutlets" : 0,
					"fontface" : 1,
					"fontsize" : 35.0
				}

			}
, 			{
				"box" : 				{
					"maxclass" : "newobj",
					"text" : "p presetOpt",
					"hidden" : 1,
					"patching_rect" : [ 480.0, 80.0, 105.0, 20.0 ],
					"numinlets" : 5,
					"id" : "obj-312",
					"fontname" : "Arial",
					"numoutlets" : 1,
					"outlettype" : [ "" ],
					"fontsize" : 12.0,
					"patcher" : 					{
						"fileversion" : 1,
						"rect" : [ 352.0, 495.0, 384.0, 219.0 ],
						"bglocked" : 0,
						"defrect" : [ 352.0, 495.0, 384.0, 219.0 ],
						"openrect" : [ 0.0, 0.0, 0.0, 0.0 ],
						"openinpresentation" : 0,
						"default_fontsize" : 12.0,
						"default_fontface" : 0,
						"default_fontname" : "Arial",
						"gridonopen" : 0,
						"gridsize" : [ 10.0, 10.0 ],
						"gridsnaponopen" : 0,
						"toolbarvisible" : 1,
						"boxanimatetime" : 200,
						"imprint" : 0,
						"enablehscroll" : 1,
						"enablevscroll" : 1,
						"devicewidth" : 0.0,
						"boxes" : [ 							{
								"box" : 								{
									"maxclass" : "outlet",
									"patching_rect" : [ 50.0, 160.0, 25.0, 25.0 ],
									"numinlets" : 1,
									"id" : "obj-6",
									"numoutlets" : 0,
									"comment" : ""
								}

							}
, 							{
								"box" : 								{
									"maxclass" : "inlet",
									"patching_rect" : [ 300.0, 30.0, 25.0, 25.0 ],
									"numinlets" : 0,
									"id" : "obj-5",
									"numoutlets" : 1,
									"outlettype" : [ "bang" ],
									"comment" : ""
								}

							}
, 							{
								"box" : 								{
									"maxclass" : "inlet",
									"patching_rect" : [ 210.0, 30.0, 25.0, 25.0 ],
									"numinlets" : 0,
									"id" : "obj-4",
									"numoutlets" : 1,
									"outlettype" : [ "int" ],
									"comment" : ""
								}

							}
, 							{
								"box" : 								{
									"maxclass" : "inlet",
									"patching_rect" : [ 170.0, 30.0, 25.0, 25.0 ],
									"numinlets" : 0,
									"id" : "obj-3",
									"numoutlets" : 1,
									"outlettype" : [ "bang" ],
									"comment" : ""
								}

							}
, 							{
								"box" : 								{
									"maxclass" : "inlet",
									"patching_rect" : [ 90.0, 30.0, 25.0, 25.0 ],
									"numinlets" : 0,
									"id" : "obj-2",
									"numoutlets" : 1,
									"outlettype" : [ "int" ],
									"comment" : ""
								}

							}
, 							{
								"box" : 								{
									"maxclass" : "inlet",
									"patching_rect" : [ 50.0, 30.0, 25.0, 25.0 ],
									"numinlets" : 0,
									"id" : "obj-1",
									"numoutlets" : 1,
									"outlettype" : [ "bang" ],
									"comment" : ""
								}

							}
, 							{
								"box" : 								{
									"maxclass" : "message",
									"text" : "clear 2",
									"patching_rect" : [ 170.0, 110.0, 59.0, 18.0 ],
									"numinlets" : 2,
									"id" : "obj-113",
									"fontname" : "Arial",
									"numoutlets" : 1,
									"outlettype" : [ "" ],
									"fontsize" : 12.0
								}

							}
, 							{
								"box" : 								{
									"maxclass" : "newobj",
									"text" : "prepend clear",
									"patching_rect" : [ 210.0, 80.0, 84.0, 20.0 ],
									"numinlets" : 1,
									"id" : "obj-111",
									"fontname" : "Arial",
									"numoutlets" : 1,
									"outlettype" : [ "" ],
									"fontsize" : 12.0
								}

							}
, 							{
								"box" : 								{
									"maxclass" : "message",
									"text" : "clearall",
									"patching_rect" : [ 300.0, 110.0, 49.0, 18.0 ],
									"numinlets" : 2,
									"id" : "obj-84",
									"fontname" : "Arial",
									"numoutlets" : 1,
									"outlettype" : [ "" ],
									"fontsize" : 12.0
								}

							}
, 							{
								"box" : 								{
									"maxclass" : "message",
									"text" : "store 3",
									"patching_rect" : [ 50.0, 110.0, 59.0, 18.0 ],
									"numinlets" : 2,
									"id" : "obj-78",
									"fontname" : "Arial",
									"numoutlets" : 1,
									"outlettype" : [ "" ],
									"fontsize" : 12.0
								}

							}
, 							{
								"box" : 								{
									"maxclass" : "newobj",
									"text" : "prepend store",
									"patching_rect" : [ 90.0, 80.0, 85.0, 20.0 ],
									"numinlets" : 1,
									"id" : "obj-74",
									"fontname" : "Arial",
									"numoutlets" : 1,
									"outlettype" : [ "" ],
									"fontsize" : 12.0
								}

							}
 ],
						"lines" : [ 							{
								"patchline" : 								{
									"source" : [ "obj-84", 0 ],
									"destination" : [ "obj-6", 0 ],
									"hidden" : 0,
									"midpoints" : [ 309.5, 147.0, 59.5, 147.0 ]
								}

							}
, 							{
								"patchline" : 								{
									"source" : [ "obj-113", 0 ],
									"destination" : [ "obj-6", 0 ],
									"hidden" : 0,
									"midpoints" : [ 179.5, 147.0, 59.5, 147.0 ]
								}

							}
, 							{
								"patchline" : 								{
									"source" : [ "obj-78", 0 ],
									"destination" : [ "obj-6", 0 ],
									"hidden" : 0,
									"midpoints" : [  ]
								}

							}
, 							{
								"patchline" : 								{
									"source" : [ "obj-5", 0 ],
									"destination" : [ "obj-84", 0 ],
									"hidden" : 0,
									"midpoints" : [  ]
								}

							}
, 							{
								"patchline" : 								{
									"source" : [ "obj-4", 0 ],
									"destination" : [ "obj-111", 0 ],
									"hidden" : 0,
									"midpoints" : [  ]
								}

							}
, 							{
								"patchline" : 								{
									"source" : [ "obj-3", 0 ],
									"destination" : [ "obj-113", 0 ],
									"hidden" : 0,
									"midpoints" : [  ]
								}

							}
, 							{
								"patchline" : 								{
									"source" : [ "obj-2", 0 ],
									"destination" : [ "obj-74", 0 ],
									"hidden" : 0,
									"midpoints" : [  ]
								}

							}
, 							{
								"patchline" : 								{
									"source" : [ "obj-1", 0 ],
									"destination" : [ "obj-78", 0 ],
									"hidden" : 0,
									"midpoints" : [  ]
								}

							}
, 							{
								"patchline" : 								{
									"source" : [ "obj-74", 0 ],
									"destination" : [ "obj-78", 1 ],
									"hidden" : 0,
									"midpoints" : [  ]
								}

							}
, 							{
								"patchline" : 								{
									"source" : [ "obj-111", 0 ],
									"destination" : [ "obj-113", 1 ],
									"hidden" : 0,
									"midpoints" : [  ]
								}

							}
 ]
					}
,
					"saved_object_attributes" : 					{
						"default_fontface" : 0,
						"default_fontname" : "Arial",
						"fontname" : "Arial",
						"default_fontsize" : 12.0,
						"globalpatchername" : "",
						"fontface" : 0,
						"fontsize" : 12.0
					}

				}

			}
, 			{
				"box" : 				{
					"maxclass" : "comment",
					"text" : "Delete",
					"patching_rect" : [ 550.0, 20.0, 46.0, 20.0 ],
					"numinlets" : 1,
					"id" : "obj-313",
					"fontname" : "Arial",
					"numoutlets" : 0,
					"fontsize" : 12.0
				}

			}
, 			{
				"box" : 				{
					"maxclass" : "comment",
					"text" : "DeleteAll",
					"patching_rect" : [ 630.0, 20.0, 60.0, 20.0 ],
					"numinlets" : 1,
					"id" : "obj-314",
					"fontname" : "Arial",
					"numoutlets" : 0,
					"fontsize" : 12.0
				}

			}
, 			{
				"box" : 				{
					"maxclass" : "number",
					"maximum" : 50,
					"patching_rect" : [ 480.0, 20.0, 50.0, 20.0 ],
					"numinlets" : 1,
					"id" : "obj-315",
					"fontname" : "Arial",
					"numoutlets" : 2,
					"minimum" : 1,
					"outlettype" : [ "int", "bang" ],
					"fontsize" : 12.0
				}

			}
, 			{
				"box" : 				{
					"maxclass" : "button",
					"patching_rect" : [ 610.0, 20.0, 20.0, 20.0 ],
					"numinlets" : 1,
					"id" : "obj-316",
					"bgcolor" : [ 0.811765, 0.372549, 0.372549, 1.0 ],
					"numoutlets" : 1,
					"outlettype" : [ "bang" ]
				}

			}
, 			{
				"box" : 				{
					"maxclass" : "button",
					"patching_rect" : [ 530.0, 40.0, 20.0, 20.0 ],
					"numinlets" : 1,
					"id" : "obj-317",
					"numoutlets" : 1,
					"outlettype" : [ "bang" ]
				}

			}
, 			{
				"box" : 				{
					"maxclass" : "button",
					"patching_rect" : [ 530.0, 20.0, 20.0, 20.0 ],
					"numinlets" : 1,
					"id" : "obj-318",
					"numoutlets" : 1,
					"outlettype" : [ "bang" ]
				}

			}
, 			{
				"box" : 				{
					"maxclass" : "comment",
					"text" : "Save",
					"patching_rect" : [ 550.0, 40.0, 45.0, 20.0 ],
					"numinlets" : 1,
					"id" : "obj-319",
					"fontname" : "Arial",
					"numoutlets" : 0,
					"fontsize" : 12.0
				}

			}
, 			{
				"box" : 				{
					"maxclass" : "number",
					"maximum" : 50,
					"patching_rect" : [ 480.0, 40.0, 50.0, 20.0 ],
					"numinlets" : 1,
					"id" : "obj-320",
					"fontname" : "Arial",
					"numoutlets" : 2,
					"minimum" : 1,
					"outlettype" : [ "int", "bang" ],
					"fontsize" : 12.0
				}

			}
, 			{
				"box" : 				{
					"maxclass" : "comment",
					"text" : "     z (-1.~1.)",
					"presentation_rect" : [ 293.0, 177.0, 0.0, 0.0 ],
					"patching_rect" : [ 292.0, 180.0, 79.0, 20.0 ],
					"numinlets" : 1,
					"id" : "obj-8",
					"fontname" : "Arial",
					"numoutlets" : 0,
					"fontsize" : 12.0
				}

			}
, 			{
				"box" : 				{
					"maxclass" : "flonum",
					"maximum" : 1.0,
					"presentation_rect" : [ 373.0, 183.0, 0.0, 0.0 ],
					"patching_rect" : [ 372.0, 180.0, 96.0, 20.0 ],
					"numinlets" : 1,
					"id" : "obj-7",
					"fontname" : "Arial",
					"numoutlets" : 2,
					"minimum" : -1.0,
					"outlettype" : [ "float", "bang" ],
					"fontsize" : 12.0
				}

			}
, 			{
				"box" : 				{
					"maxclass" : "newobj",
					"text" : "ALTOSC_accelerometer",
					"patching_rect" : [ 50.0, 110.0, 140.0, 20.0 ],
					"numinlets" : 1,
					"id" : "obj-6",
					"fontname" : "Arial",
					"numoutlets" : 3,
					"outlettype" : [ "float", "float", "float" ],
					"fontsize" : 12.0
				}

			}
, 			{
				"box" : 				{
					"maxclass" : "newobj",
					"text" : "p acceleroLines",
					"hidden" : 1,
					"patching_rect" : [ 50.0, 130.0, 140.0, 20.0 ],
					"numinlets" : 3,
					"id" : "obj-5",
					"fontname" : "Arial",
					"numoutlets" : 3,
					"outlettype" : [ "", "", "" ],
					"fontsize" : 12.0,
					"patcher" : 					{
						"fileversion" : 1,
						"rect" : [ 25.0, 69.0, 374.0, 179.0 ],
						"bglocked" : 0,
						"defrect" : [ 25.0, 69.0, 374.0, 179.0 ],
						"openrect" : [ 0.0, 0.0, 0.0, 0.0 ],
						"openinpresentation" : 0,
						"default_fontsize" : 12.0,
						"default_fontface" : 0,
						"default_fontname" : "Arial",
						"gridonopen" : 0,
						"gridsize" : [ 10.0, 10.0 ],
						"gridsnaponopen" : 0,
						"toolbarvisible" : 1,
						"boxanimatetime" : 200,
						"imprint" : 0,
						"enablehscroll" : 1,
						"enablevscroll" : 1,
						"devicewidth" : 0.0,
						"boxes" : [ 							{
								"box" : 								{
									"maxclass" : "outlet",
									"patching_rect" : [ 250.0, 120.0, 25.0, 25.0 ],
									"numinlets" : 1,
									"id" : "obj-7",
									"numoutlets" : 0,
									"comment" : ""
								}

							}
, 							{
								"box" : 								{
									"maxclass" : "outlet",
									"presentation_rect" : [ 142.0, 125.0, 0.0, 0.0 ],
									"patching_rect" : [ 140.0, 120.0, 25.0, 25.0 ],
									"numinlets" : 1,
									"id" : "obj-6",
									"numoutlets" : 0,
									"comment" : ""
								}

							}
, 							{
								"box" : 								{
									"maxclass" : "outlet",
									"patching_rect" : [ 30.0, 120.0, 25.0, 25.0 ],
									"numinlets" : 1,
									"id" : "obj-5",
									"numoutlets" : 0,
									"comment" : ""
								}

							}
, 							{
								"box" : 								{
									"maxclass" : "inlet",
									"patching_rect" : [ 250.0, 40.0, 25.0, 25.0 ],
									"numinlets" : 0,
									"id" : "obj-4",
									"numoutlets" : 1,
									"outlettype" : [ "float" ],
									"comment" : ""
								}

							}
, 							{
								"box" : 								{
									"maxclass" : "inlet",
									"presentation_rect" : [ 140.0, 40.0, 0.0, 0.0 ],
									"patching_rect" : [ 140.0, 40.0, 25.0, 25.0 ],
									"numinlets" : 0,
									"id" : "obj-2",
									"numoutlets" : 1,
									"outlettype" : [ "float" ],
									"comment" : ""
								}

							}
, 							{
								"box" : 								{
									"maxclass" : "newobj",
									"text" : "acceleroLine 200.",
									"patching_rect" : [ 250.0, 80.0, 105.0, 20.0 ],
									"numinlets" : 2,
									"id" : "obj-12",
									"fontname" : "Arial",
									"numoutlets" : 1,
									"outlettype" : [ "" ],
									"fontsize" : 12.0
								}

							}
, 							{
								"box" : 								{
									"maxclass" : "newobj",
									"text" : "acceleroLine 200.",
									"patching_rect" : [ 140.0, 80.0, 105.0, 20.0 ],
									"numinlets" : 2,
									"id" : "obj-8",
									"fontname" : "Arial",
									"numoutlets" : 1,
									"outlettype" : [ "" ],
									"fontsize" : 12.0
								}

							}
, 							{
								"box" : 								{
									"maxclass" : "newobj",
									"text" : "acceleroLine 200.",
									"patching_rect" : [ 30.0, 80.0, 105.0, 20.0 ],
									"numinlets" : 2,
									"id" : "obj-3",
									"fontname" : "Arial",
									"numoutlets" : 1,
									"outlettype" : [ "" ],
									"fontsize" : 12.0
								}

							}
, 							{
								"box" : 								{
									"maxclass" : "inlet",
									"patching_rect" : [ 30.0, 40.0, 25.0, 25.0 ],
									"numinlets" : 0,
									"id" : "obj-1",
									"numoutlets" : 1,
									"outlettype" : [ "float" ],
									"comment" : ""
								}

							}
 ],
						"lines" : [ 							{
								"patchline" : 								{
									"source" : [ "obj-12", 0 ],
									"destination" : [ "obj-7", 0 ],
									"hidden" : 0,
									"midpoints" : [  ]
								}

							}
, 							{
								"patchline" : 								{
									"source" : [ "obj-4", 0 ],
									"destination" : [ "obj-12", 0 ],
									"hidden" : 0,
									"midpoints" : [  ]
								}

							}
, 							{
								"patchline" : 								{
									"source" : [ "obj-2", 0 ],
									"destination" : [ "obj-8", 0 ],
									"hidden" : 0,
									"midpoints" : [  ]
								}

							}
, 							{
								"patchline" : 								{
									"source" : [ "obj-3", 0 ],
									"destination" : [ "obj-5", 0 ],
									"hidden" : 0,
									"midpoints" : [  ]
								}

							}
, 							{
								"patchline" : 								{
									"source" : [ "obj-1", 0 ],
									"destination" : [ "obj-3", 0 ],
									"hidden" : 0,
									"midpoints" : [  ]
								}

							}
, 							{
								"patchline" : 								{
									"source" : [ "obj-8", 0 ],
									"destination" : [ "obj-6", 0 ],
									"hidden" : 0,
									"midpoints" : [  ]
								}

							}
 ]
					}
,
					"saved_object_attributes" : 					{
						"default_fontface" : 0,
						"default_fontname" : "Arial",
						"fontname" : "Arial",
						"default_fontsize" : 12.0,
						"globalpatchername" : "",
						"fontface" : 0,
						"fontsize" : 12.0
					}

				}

			}
, 			{
				"box" : 				{
					"maxclass" : "newobj",
					"text" : "p acceleroScale",
					"hidden" : 1,
					"patching_rect" : [ 280.0, 90.0, 99.0, 20.0 ],
					"numinlets" : 3,
					"id" : "obj-4",
					"fontname" : "Arial",
					"numoutlets" : 3,
					"outlettype" : [ "", "", "" ],
					"fontsize" : 12.0,
					"patcher" : 					{
						"fileversion" : 1,
						"rect" : [ 10.0, 210.0, 378.0, 155.0 ],
						"bglocked" : 0,
						"defrect" : [ 10.0, 210.0, 378.0, 155.0 ],
						"openrect" : [ 0.0, 0.0, 0.0, 0.0 ],
						"openinpresentation" : 0,
						"default_fontsize" : 12.0,
						"default_fontface" : 0,
						"default_fontname" : "Arial",
						"gridonopen" : 0,
						"gridsize" : [ 10.0, 10.0 ],
						"gridsnaponopen" : 0,
						"toolbarvisible" : 1,
						"boxanimatetime" : 200,
						"imprint" : 0,
						"enablehscroll" : 1,
						"enablevscroll" : 1,
						"devicewidth" : 0.0,
						"boxes" : [ 							{
								"box" : 								{
									"maxclass" : "outlet",
									"patching_rect" : [ 250.0, 100.0, 25.0, 25.0 ],
									"numinlets" : 1,
									"id" : "obj-9",
									"numoutlets" : 0,
									"comment" : ""
								}

							}
, 							{
								"box" : 								{
									"maxclass" : "newobj",
									"text" : "scale -1. 1. 0 127",
									"patching_rect" : [ 250.0, 70.0, 103.0, 20.0 ],
									"numinlets" : 6,
									"id" : "obj-10",
									"fontname" : "Arial",
									"numoutlets" : 1,
									"outlettype" : [ "" ],
									"fontsize" : 12.0
								}

							}
, 							{
								"box" : 								{
									"maxclass" : "inlet",
									"patching_rect" : [ 250.0, 30.0, 25.0, 25.0 ],
									"numinlets" : 0,
									"id" : "obj-11",
									"numoutlets" : 1,
									"outlettype" : [ "float" ],
									"comment" : ""
								}

							}
, 							{
								"box" : 								{
									"maxclass" : "outlet",
									"presentation_rect" : [ 168.0, 177.0, 0.0, 0.0 ],
									"patching_rect" : [ 140.0, 100.0, 25.0, 25.0 ],
									"numinlets" : 1,
									"id" : "obj-5",
									"numoutlets" : 0,
									"comment" : ""
								}

							}
, 							{
								"box" : 								{
									"maxclass" : "newobj",
									"text" : "scale -1. 1. 0 127",
									"presentation_rect" : [ 168.0, 137.0, 0.0, 0.0 ],
									"patching_rect" : [ 140.0, 70.0, 103.0, 20.0 ],
									"numinlets" : 6,
									"id" : "obj-6",
									"fontname" : "Arial",
									"numoutlets" : 1,
									"outlettype" : [ "" ],
									"fontsize" : 12.0
								}

							}
, 							{
								"box" : 								{
									"maxclass" : "inlet",
									"presentation_rect" : [ 168.0, 67.0, 0.0, 0.0 ],
									"patching_rect" : [ 140.0, 30.0, 25.0, 25.0 ],
									"numinlets" : 0,
									"id" : "obj-7",
									"numoutlets" : 1,
									"outlettype" : [ "float" ],
									"comment" : ""
								}

							}
, 							{
								"box" : 								{
									"maxclass" : "outlet",
									"patching_rect" : [ 30.0, 100.0, 25.0, 25.0 ],
									"numinlets" : 1,
									"id" : "obj-4",
									"numoutlets" : 0,
									"comment" : ""
								}

							}
, 							{
								"box" : 								{
									"maxclass" : "newobj",
									"text" : "scale -1. 1. 0 127",
									"patching_rect" : [ 30.0, 70.0, 103.0, 20.0 ],
									"numinlets" : 6,
									"id" : "obj-2",
									"fontname" : "Arial",
									"numoutlets" : 1,
									"outlettype" : [ "" ],
									"fontsize" : 12.0
								}

							}
, 							{
								"box" : 								{
									"maxclass" : "inlet",
									"patching_rect" : [ 30.0, 30.0, 25.0, 25.0 ],
									"numinlets" : 0,
									"id" : "obj-1",
									"numoutlets" : 1,
									"outlettype" : [ "float" ],
									"comment" : ""
								}

							}
 ],
						"lines" : [ 							{
								"patchline" : 								{
									"source" : [ "obj-11", 0 ],
									"destination" : [ "obj-10", 0 ],
									"hidden" : 0,
									"midpoints" : [  ]
								}

							}
, 							{
								"patchline" : 								{
									"source" : [ "obj-7", 0 ],
									"destination" : [ "obj-6", 0 ],
									"hidden" : 0,
									"midpoints" : [  ]
								}

							}
, 							{
								"patchline" : 								{
									"source" : [ "obj-1", 0 ],
									"destination" : [ "obj-2", 0 ],
									"hidden" : 0,
									"midpoints" : [  ]
								}

							}
, 							{
								"patchline" : 								{
									"source" : [ "obj-10", 0 ],
									"destination" : [ "obj-9", 0 ],
									"hidden" : 0,
									"midpoints" : [  ]
								}

							}
, 							{
								"patchline" : 								{
									"source" : [ "obj-6", 0 ],
									"destination" : [ "obj-5", 0 ],
									"hidden" : 0,
									"midpoints" : [  ]
								}

							}
, 							{
								"patchline" : 								{
									"source" : [ "obj-2", 0 ],
									"destination" : [ "obj-4", 0 ],
									"hidden" : 0,
									"midpoints" : [  ]
								}

							}
 ]
					}
,
					"saved_object_attributes" : 					{
						"default_fontface" : 0,
						"default_fontname" : "Arial",
						"fontname" : "Arial",
						"default_fontsize" : 12.0,
						"globalpatchername" : "",
						"fontface" : 0,
						"fontsize" : 12.0
					}

				}

			}
, 			{
				"box" : 				{
					"maxclass" : "newobj",
					"text" : "t i b",
					"hidden" : 1,
					"patching_rect" : [ 360.0, 113.0, 32.5, 20.0 ],
					"numinlets" : 1,
					"id" : "obj-1095",
					"fontname" : "Arial",
					"numoutlets" : 2,
					"outlettype" : [ "int", "bang" ],
					"fontsize" : 12.0
				}

			}
, 			{
				"box" : 				{
					"maxclass" : "newobj",
					"text" : "t i b",
					"hidden" : 1,
					"patching_rect" : [ 320.0, 113.0, 32.5, 20.0 ],
					"numinlets" : 1,
					"id" : "obj-1093",
					"fontname" : "Arial",
					"numoutlets" : 2,
					"outlettype" : [ "int", "bang" ],
					"fontsize" : 12.0
				}

			}
, 			{
				"box" : 				{
					"maxclass" : "newobj",
					"text" : "t i b",
					"hidden" : 1,
					"patching_rect" : [ 280.0, 113.0, 32.5, 20.0 ],
					"numinlets" : 1,
					"id" : "obj-1092",
					"fontname" : "Arial",
					"numoutlets" : 2,
					"outlettype" : [ "int", "bang" ],
					"fontsize" : 12.0
				}

			}
, 			{
				"box" : 				{
					"maxclass" : "comment",
					"text" : "XYZ",
					"patching_rect" : [ 92.0, 153.0, 58.0, 29.0 ],
					"numinlets" : 1,
					"id" : "obj-1075",
					"fontname" : "Arial",
					"numoutlets" : 0,
					"fontface" : 1,
					"fontsize" : 20.0
				}

			}
, 			{
				"box" : 				{
					"maxclass" : "comment",
					"text" : "Assine Button",
					"patching_rect" : [ 202.0, 113.0, 84.0, 20.0 ],
					"numinlets" : 1,
					"id" : "obj-401",
					"fontname" : "Arial",
					"numoutlets" : 0,
					"fontsize" : 12.0
				}

			}
, 			{
				"box" : 				{
					"maxclass" : "comment",
					"text" : "     y (-1.~1.)",
					"patching_rect" : [ 292.0, 160.0, 79.0, 20.0 ],
					"numinlets" : 1,
					"id" : "obj-405",
					"fontname" : "Arial",
					"numoutlets" : 0,
					"fontsize" : 12.0
				}

			}
, 			{
				"box" : 				{
					"maxclass" : "comment",
					"text" : "     x (-1.~1.)",
					"patching_rect" : [ 292.0, 140.0, 84.0, 20.0 ],
					"numinlets" : 1,
					"id" : "obj-406",
					"fontname" : "Arial",
					"numoutlets" : 0,
					"fontsize" : 12.0
				}

			}
, 			{
				"box" : 				{
					"maxclass" : "comment",
					"text" : " OSC value",
					"patching_rect" : [ 382.0, 113.0, 95.0, 20.0 ],
					"numinlets" : 1,
					"id" : "obj-407",
					"fontname" : "Arial",
					"numoutlets" : 0,
					"fontsize" : 12.0
				}

			}
, 			{
				"box" : 				{
					"maxclass" : "comment",
					"text" : "MIDI value     MIDI  number   MIDI channel",
					"patching_rect" : [ 492.0, 113.0, 256.0, 20.0 ],
					"numinlets" : 1,
					"id" : "obj-408",
					"fontname" : "Arial",
					"numoutlets" : 0,
					"fontsize" : 12.0
				}

			}
, 			{
				"box" : 				{
					"maxclass" : "toggle",
					"hidden" : 1,
					"patching_rect" : [ 202.0, 160.0, 20.0, 20.0 ],
					"numinlets" : 1,
					"id" : "obj-410",
					"numoutlets" : 1,
					"outlettype" : [ "int" ]
				}

			}
, 			{
				"box" : 				{
					"maxclass" : "toggle",
					"hidden" : 1,
					"patching_rect" : [ 202.0, 140.0, 20.0, 20.0 ],
					"numinlets" : 1,
					"id" : "obj-411",
					"numoutlets" : 1,
					"outlettype" : [ "int" ]
				}

			}
, 			{
				"box" : 				{
					"maxclass" : "newobj",
					"text" : "ctlout",
					"hidden" : 1,
					"patching_rect" : [ 722.0, 180.0, 46.0, 20.0 ],
					"numinlets" : 3,
					"id" : "obj-421",
					"fontname" : "Arial",
					"numoutlets" : 0,
					"fontsize" : 12.0
				}

			}
, 			{
				"box" : 				{
					"maxclass" : "number",
					"maximum" : 16,
					"patching_rect" : [ 662.0, 180.0, 50.0, 20.0 ],
					"numinlets" : 1,
					"id" : "obj-422",
					"fontname" : "Arial",
					"numoutlets" : 2,
					"minimum" : 1,
					"outlettype" : [ "int", "bang" ],
					"fontsize" : 12.0
				}

			}
, 			{
				"box" : 				{
					"maxclass" : "number",
					"patching_rect" : [ 582.0, 180.0, 50.0, 20.0 ],
					"numinlets" : 1,
					"id" : "obj-423",
					"fontname" : "Arial",
					"numoutlets" : 2,
					"minimum" : 0,
					"outlettype" : [ "int", "bang" ],
					"fontsize" : 12.0
				}

			}
, 			{
				"box" : 				{
					"maxclass" : "number",
					"maximum" : 127,
					"patching_rect" : [ 502.0, 180.0, 47.0, 20.0 ],
					"numinlets" : 1,
					"id" : "obj-424",
					"fontname" : "Arial",
					"numoutlets" : 2,
					"minimum" : 0,
					"outlettype" : [ "int", "bang" ],
					"fontsize" : 12.0
				}

			}
, 			{
				"box" : 				{
					"maxclass" : "newobj",
					"text" : "ctlout",
					"hidden" : 1,
					"patching_rect" : [ 722.0, 160.0, 46.0, 20.0 ],
					"numinlets" : 3,
					"id" : "obj-425",
					"fontname" : "Arial",
					"numoutlets" : 0,
					"fontsize" : 12.0
				}

			}
, 			{
				"box" : 				{
					"maxclass" : "number",
					"maximum" : 16,
					"patching_rect" : [ 662.0, 160.0, 50.0, 20.0 ],
					"numinlets" : 1,
					"id" : "obj-426",
					"fontname" : "Arial",
					"numoutlets" : 2,
					"minimum" : 1,
					"outlettype" : [ "int", "bang" ],
					"fontsize" : 12.0
				}

			}
, 			{
				"box" : 				{
					"maxclass" : "number",
					"patching_rect" : [ 582.0, 160.0, 50.0, 20.0 ],
					"numinlets" : 1,
					"id" : "obj-427",
					"fontname" : "Arial",
					"numoutlets" : 2,
					"minimum" : 0,
					"outlettype" : [ "int", "bang" ],
					"fontsize" : 12.0
				}

			}
, 			{
				"box" : 				{
					"maxclass" : "number",
					"maximum" : 127,
					"patching_rect" : [ 502.0, 160.0, 47.0, 20.0 ],
					"numinlets" : 1,
					"id" : "obj-428",
					"fontname" : "Arial",
					"numoutlets" : 2,
					"minimum" : 0,
					"outlettype" : [ "int", "bang" ],
					"fontsize" : 12.0
				}

			}
, 			{
				"box" : 				{
					"maxclass" : "newobj",
					"text" : "ctlout",
					"hidden" : 1,
					"patching_rect" : [ 722.0, 140.0, 46.0, 20.0 ],
					"numinlets" : 3,
					"id" : "obj-429",
					"fontname" : "Arial",
					"numoutlets" : 0,
					"fontsize" : 12.0
				}

			}
, 			{
				"box" : 				{
					"maxclass" : "number",
					"maximum" : 16,
					"patching_rect" : [ 662.0, 140.0, 50.0, 20.0 ],
					"numinlets" : 1,
					"id" : "obj-430",
					"fontname" : "Arial",
					"numoutlets" : 2,
					"minimum" : 1,
					"outlettype" : [ "int", "bang" ],
					"fontsize" : 12.0
				}

			}
, 			{
				"box" : 				{
					"maxclass" : "number",
					"patching_rect" : [ 582.0, 140.0, 50.0, 20.0 ],
					"numinlets" : 1,
					"id" : "obj-431",
					"fontname" : "Arial",
					"numoutlets" : 2,
					"minimum" : 0,
					"outlettype" : [ "int", "bang" ],
					"fontsize" : 12.0
				}

			}
, 			{
				"box" : 				{
					"maxclass" : "number",
					"maximum" : 127,
					"patching_rect" : [ 502.0, 140.0, 47.0, 20.0 ],
					"numinlets" : 1,
					"id" : "obj-432",
					"fontname" : "Arial",
					"numoutlets" : 2,
					"minimum" : 0,
					"outlettype" : [ "int", "bang" ],
					"fontsize" : 12.0
				}

			}
, 			{
				"box" : 				{
					"maxclass" : "live.button",
					"varname" : "live.button[7]",
					"patching_rect" : [ 232.0, 180.0, 20.0, 20.0 ],
					"numinlets" : 1,
					"id" : "obj-435",
					"parameter_enable" : 1,
					"numoutlets" : 1,
					"outlettype" : [ "" ],
					"saved_attribute_attributes" : 					{
						"valueof" : 						{
							"parameter_type" : 2,
							"parameter_initial_enable" : 0,
							"parameter_shortname" : "live.button",
							"parameter_modmax" : 127.0,
							"parameter_longname" : "live.button[7]",
							"parameter_modmin" : 0.0,
							"parameter_linknames" : 0,
							"parameter_modmode" : 0,
							"parameter_info" : "",
							"parameter_units" : "",
							"parameter_order" : 0,
							"parameter_defer" : 0,
							"parameter_speedlim" : 1.0,
							"parameter_steps" : 0,
							"parameter_invisible" : 0,
							"parameter_enum" : [ "off", "on" ],
							"parameter_exponent" : 1.0,
							"parameter_annotation_name" : "",
							"parameter_unitstyle" : 10,
							"parameter_mmax" : 1.0,
							"parameter_mmin" : 0.0
						}

					}

				}

			}
, 			{
				"box" : 				{
					"maxclass" : "live.button",
					"varname" : "live.button[8]",
					"patching_rect" : [ 232.0, 160.0, 20.0, 20.0 ],
					"numinlets" : 1,
					"id" : "obj-436",
					"parameter_enable" : 1,
					"numoutlets" : 1,
					"outlettype" : [ "" ],
					"saved_attribute_attributes" : 					{
						"valueof" : 						{
							"parameter_type" : 2,
							"parameter_initial_enable" : 0,
							"parameter_shortname" : "live.button",
							"parameter_modmax" : 127.0,
							"parameter_longname" : "live.button[8]",
							"parameter_modmin" : 0.0,
							"parameter_linknames" : 0,
							"parameter_modmode" : 0,
							"parameter_info" : "",
							"parameter_units" : "",
							"parameter_order" : 0,
							"parameter_defer" : 0,
							"parameter_speedlim" : 1.0,
							"parameter_steps" : 0,
							"parameter_invisible" : 0,
							"parameter_enum" : [ "off", "on" ],
							"parameter_exponent" : 1.0,
							"parameter_annotation_name" : "",
							"parameter_unitstyle" : 10,
							"parameter_mmax" : 1.0,
							"parameter_mmin" : 0.0
						}

					}

				}

			}
, 			{
				"box" : 				{
					"maxclass" : "live.button",
					"varname" : "live.button[9]",
					"patching_rect" : [ 232.0, 140.0, 20.0, 20.0 ],
					"numinlets" : 1,
					"id" : "obj-437",
					"parameter_enable" : 1,
					"numoutlets" : 1,
					"outlettype" : [ "" ],
					"saved_attribute_attributes" : 					{
						"valueof" : 						{
							"parameter_type" : 2,
							"parameter_initial_enable" : 0,
							"parameter_shortname" : "live.button",
							"parameter_modmax" : 127.0,
							"parameter_longname" : "live.button[9]",
							"parameter_modmin" : 0.0,
							"parameter_linknames" : 0,
							"parameter_modmode" : 0,
							"parameter_info" : "",
							"parameter_units" : "",
							"parameter_order" : 0,
							"parameter_defer" : 0,
							"parameter_speedlim" : 1.0,
							"parameter_steps" : 0,
							"parameter_invisible" : 0,
							"parameter_enum" : [ "off", "on" ],
							"parameter_exponent" : 1.0,
							"parameter_annotation_name" : "",
							"parameter_unitstyle" : 10,
							"parameter_mmax" : 1.0,
							"parameter_mmin" : 0.0
						}

					}

				}

			}
, 			{
				"box" : 				{
					"maxclass" : "newobj",
					"text" : "udpreceive 10001",
					"patching_rect" : [ 30.0, 30.0, 106.0, 20.0 ],
					"numinlets" : 1,
					"id" : "obj-1",
					"fontname" : "Arial",
					"numoutlets" : 1,
					"outlettype" : [ "" ],
					"fontsize" : 12.0
				}

			}
, 			{
				"box" : 				{
					"maxclass" : "panel",
					"rounded" : 25,
					"patching_rect" : [ 61.0, 135.0, 156.0, 70.0 ],
					"numinlets" : 1,
					"id" : "obj-323",
					"mode" : 1,
					"numoutlets" : 0,
					"grad1" : [ 1.0, 1.0, 1.0, 1.0 ],
					"grad2" : [ 0.858824, 0.858824, 0.858824, 1.0 ],
					"background" : 1
				}

			}
, 			{
				"box" : 				{
					"maxclass" : "panel",
					"rounded" : 0,
					"patching_rect" : [ 80.0, 110.0, 126.0, 25.0 ],
					"numinlets" : 1,
					"id" : "obj-322",
					"mode" : 1,
					"numoutlets" : 0,
					"grad1" : [ 1.0, 1.0, 1.0, 1.0 ],
					"grad2" : [ 0.670588, 0.670588, 0.670588, 1.0 ],
					"background" : 1
				}

			}
, 			{
				"box" : 				{
					"maxclass" : "panel",
					"patching_rect" : [ 201.0, 135.0, 530.0, 70.0 ],
					"numinlets" : 1,
					"id" : "obj-443",
					"bgcolor" : [ 0.858824, 0.858824, 0.858824, 1.0 ],
					"numoutlets" : 0,
					"grad2" : [ 1.0, 1.0, 1.0, 1.0 ],
					"background" : 1
				}

			}
, 			{
				"box" : 				{
					"maxclass" : "panel",
					"patching_rect" : [ 201.0, 110.0, 530.0, 40.0 ],
					"numinlets" : 1,
					"id" : "obj-451",
					"numoutlets" : 0,
					"background" : 1
				}

			}
 ],
		"lines" : [ 			{
				"patchline" : 				{
					"source" : [ "obj-5", 0 ],
					"destination" : [ "obj-11", 0 ],
					"hidden" : 1,
					"midpoints" : [  ]
				}

			}
, 			{
				"patchline" : 				{
					"source" : [ "obj-411", 0 ],
					"destination" : [ "obj-11", 0 ],
					"hidden" : 1,
					"midpoints" : [  ]
				}

			}
, 			{
				"patchline" : 				{
					"source" : [ "obj-11", 0 ],
					"destination" : [ "obj-4", 0 ],
					"hidden" : 1,
					"midpoints" : [  ]
				}

			}
, 			{
				"patchline" : 				{
					"source" : [ "obj-5", 1 ],
					"destination" : [ "obj-12", 0 ],
					"hidden" : 1,
					"midpoints" : [  ]
				}

			}
, 			{
				"patchline" : 				{
					"source" : [ "obj-12", 0 ],
					"destination" : [ "obj-4", 1 ],
					"hidden" : 1,
					"midpoints" : [  ]
				}

			}
, 			{
				"patchline" : 				{
					"source" : [ "obj-410", 0 ],
					"destination" : [ "obj-12", 0 ],
					"hidden" : 1,
					"midpoints" : [  ]
				}

			}
, 			{
				"patchline" : 				{
					"source" : [ "obj-312", 0 ],
					"destination" : [ "obj-10", 0 ],
					"hidden" : 1,
					"color" : [ 0.858824, 0.858824, 0.858824, 1.0 ],
					"midpoints" : [  ]
				}

			}
, 			{
				"patchline" : 				{
					"source" : [ "obj-311", 1 ],
					"destination" : [ "obj-421", 0 ],
					"hidden" : 1,
					"midpoints" : [  ]
				}

			}
, 			{
				"patchline" : 				{
					"source" : [ "obj-311", 1 ],
					"destination" : [ "obj-425", 0 ],
					"hidden" : 1,
					"midpoints" : [  ]
				}

			}
, 			{
				"patchline" : 				{
					"source" : [ "obj-311", 1 ],
					"destination" : [ "obj-429", 0 ],
					"hidden" : 1,
					"midpoints" : [  ]
				}

			}
, 			{
				"patchline" : 				{
					"source" : [ "obj-310", 0 ],
					"destination" : [ "obj-311", 0 ],
					"hidden" : 1,
					"midpoints" : [  ]
				}

			}
, 			{
				"patchline" : 				{
					"source" : [ "obj-316", 0 ],
					"destination" : [ "obj-312", 4 ],
					"hidden" : 1,
					"color" : [ 0.858824, 0.858824, 0.858824, 1.0 ],
					"midpoints" : [  ]
				}

			}
, 			{
				"patchline" : 				{
					"source" : [ "obj-315", 0 ],
					"destination" : [ "obj-312", 3 ],
					"hidden" : 1,
					"color" : [ 0.858824, 0.858824, 0.858824, 1.0 ],
					"midpoints" : [  ]
				}

			}
, 			{
				"patchline" : 				{
					"source" : [ "obj-318", 0 ],
					"destination" : [ "obj-312", 2 ],
					"hidden" : 1,
					"color" : [ 0.858824, 0.858824, 0.858824, 1.0 ],
					"midpoints" : [  ]
				}

			}
, 			{
				"patchline" : 				{
					"source" : [ "obj-320", 0 ],
					"destination" : [ "obj-312", 1 ],
					"hidden" : 1,
					"color" : [ 0.858824, 0.858824, 0.858824, 1.0 ],
					"midpoints" : [  ]
				}

			}
, 			{
				"patchline" : 				{
					"source" : [ "obj-317", 0 ],
					"destination" : [ "obj-312", 0 ],
					"hidden" : 1,
					"color" : [ 0.858824, 0.858824, 0.858824, 1.0 ],
					"midpoints" : [  ]
				}

			}
, 			{
				"patchline" : 				{
					"source" : [ "obj-1", 0 ],
					"destination" : [ "obj-6", 0 ],
					"hidden" : 0,
					"midpoints" : [ 39.5, 96.0, 59.5, 96.0 ]
				}

			}
, 			{
				"patchline" : 				{
					"source" : [ "obj-7", 0 ],
					"destination" : [ "obj-4", 2 ],
					"hidden" : 1,
					"midpoints" : [  ]
				}

			}
, 			{
				"patchline" : 				{
					"source" : [ "obj-4", 2 ],
					"destination" : [ "obj-1095", 0 ],
					"hidden" : 1,
					"midpoints" : [  ]
				}

			}
, 			{
				"patchline" : 				{
					"source" : [ "obj-4", 1 ],
					"destination" : [ "obj-1093", 0 ],
					"hidden" : 1,
					"midpoints" : [  ]
				}

			}
, 			{
				"patchline" : 				{
					"source" : [ "obj-4", 0 ],
					"destination" : [ "obj-1092", 0 ],
					"hidden" : 1,
					"midpoints" : [  ]
				}

			}
, 			{
				"patchline" : 				{
					"source" : [ "obj-5", 2 ],
					"destination" : [ "obj-7", 0 ],
					"hidden" : 1,
					"midpoints" : [  ]
				}

			}
, 			{
				"patchline" : 				{
					"source" : [ "obj-6", 2 ],
					"destination" : [ "obj-5", 2 ],
					"hidden" : 1,
					"midpoints" : [  ]
				}

			}
, 			{
				"patchline" : 				{
					"source" : [ "obj-6", 1 ],
					"destination" : [ "obj-5", 1 ],
					"hidden" : 1,
					"midpoints" : [  ]
				}

			}
, 			{
				"patchline" : 				{
					"source" : [ "obj-6", 0 ],
					"destination" : [ "obj-5", 0 ],
					"hidden" : 1,
					"midpoints" : [  ]
				}

			}
, 			{
				"patchline" : 				{
					"source" : [ "obj-436", 0 ],
					"destination" : [ "obj-410", 0 ],
					"hidden" : 1,
					"midpoints" : [  ]
				}

			}
, 			{
				"patchline" : 				{
					"source" : [ "obj-437", 0 ],
					"destination" : [ "obj-411", 0 ],
					"hidden" : 1,
					"midpoints" : [  ]
				}

			}
, 			{
				"patchline" : 				{
					"source" : [ "obj-422", 0 ],
					"destination" : [ "obj-421", 2 ],
					"hidden" : 1,
					"midpoints" : [  ]
				}

			}
, 			{
				"patchline" : 				{
					"source" : [ "obj-423", 0 ],
					"destination" : [ "obj-421", 1 ],
					"hidden" : 1,
					"midpoints" : [  ]
				}

			}
, 			{
				"patchline" : 				{
					"source" : [ "obj-427", 0 ],
					"destination" : [ "obj-425", 1 ],
					"hidden" : 1,
					"midpoints" : [  ]
				}

			}
, 			{
				"patchline" : 				{
					"source" : [ "obj-426", 0 ],
					"destination" : [ "obj-425", 2 ],
					"hidden" : 1,
					"midpoints" : [  ]
				}

			}
, 			{
				"patchline" : 				{
					"source" : [ "obj-430", 0 ],
					"destination" : [ "obj-429", 2 ],
					"hidden" : 1,
					"midpoints" : [  ]
				}

			}
, 			{
				"patchline" : 				{
					"source" : [ "obj-431", 0 ],
					"destination" : [ "obj-429", 1 ],
					"hidden" : 1,
					"midpoints" : [  ]
				}

			}
, 			{
				"patchline" : 				{
					"source" : [ "obj-1092", 0 ],
					"destination" : [ "obj-432", 0 ],
					"hidden" : 1,
					"midpoints" : [  ]
				}

			}
, 			{
				"patchline" : 				{
					"source" : [ "obj-1092", 1 ],
					"destination" : [ "obj-431", 0 ],
					"hidden" : 1,
					"midpoints" : [  ]
				}

			}
, 			{
				"patchline" : 				{
					"source" : [ "obj-1092", 1 ],
					"destination" : [ "obj-430", 0 ],
					"hidden" : 1,
					"midpoints" : [  ]
				}

			}
, 			{
				"patchline" : 				{
					"source" : [ "obj-1093", 0 ],
					"destination" : [ "obj-428", 0 ],
					"hidden" : 1,
					"midpoints" : [  ]
				}

			}
, 			{
				"patchline" : 				{
					"source" : [ "obj-1093", 1 ],
					"destination" : [ "obj-427", 0 ],
					"hidden" : 1,
					"midpoints" : [  ]
				}

			}
, 			{
				"patchline" : 				{
					"source" : [ "obj-1093", 1 ],
					"destination" : [ "obj-426", 0 ],
					"hidden" : 1,
					"midpoints" : [  ]
				}

			}
, 			{
				"patchline" : 				{
					"source" : [ "obj-1095", 1 ],
					"destination" : [ "obj-422", 0 ],
					"hidden" : 1,
					"midpoints" : [  ]
				}

			}
, 			{
				"patchline" : 				{
					"source" : [ "obj-1095", 1 ],
					"destination" : [ "obj-423", 0 ],
					"hidden" : 1,
					"midpoints" : [  ]
				}

			}
, 			{
				"patchline" : 				{
					"source" : [ "obj-1095", 0 ],
					"destination" : [ "obj-424", 0 ],
					"hidden" : 1,
					"midpoints" : [  ]
				}

			}
, 			{
				"patchline" : 				{
					"source" : [ "obj-432", 0 ],
					"destination" : [ "obj-429", 0 ],
					"hidden" : 1,
					"midpoints" : [  ]
				}

			}
, 			{
				"patchline" : 				{
					"source" : [ "obj-428", 0 ],
					"destination" : [ "obj-425", 0 ],
					"hidden" : 1,
					"midpoints" : [  ]
				}

			}
, 			{
				"patchline" : 				{
					"source" : [ "obj-424", 0 ],
					"destination" : [ "obj-421", 0 ],
					"hidden" : 1,
					"midpoints" : [  ]
				}

			}
 ],
		"parameters" : 		{
			"obj-437" : [ "live.button[9]", "live.button", 0 ],
			"obj-436" : [ "live.button[8]", "live.button", 0 ],
			"obj-435" : [ "live.button[7]", "live.button", 0 ]
		}

	}

}
